<?xml version="1.0" standalone="no"?>
<!DOCTYPE svg PUBLIC "-//W3C//DTD SVG 1.1//EN" "http://www.w3.org/Graphics/SVG/1.1/DTD/svg11.dtd" >
<svg xmlns="http://www.w3.org/2000/svg">
<metadata></metadata>
<defs>
<font id="lloyds_bank_jackmedium" horiz-adv-x="543" >
<font-face units-per-em="1000" ascent="750" descent="-250" />
<missing-glyph horiz-adv-x="186" />
<glyph unicode="&#xfb01;" horiz-adv-x="556" d="M20 400v85h71v40q0 181 213 181q69 0 143 -13l-8 -90q-59 11 -120 11q-64 0 -91 -21.5t-27 -76.5v-31h291v-485h-110v400h-181v-400h-110v400h-71z" />
<glyph unicode="&#xfb02;" horiz-adv-x="558" d="M20 400v85h71v40q0 90 52 135.5t168 45.5q93 0 186 -22v-684h-110v608q-38 7 -83 7q-57 0 -80 -23t-23 -78v-29h103l-6 -85h-97v-400h-110v400h-71z" />
<glyph unicode="&#xfb03;" horiz-adv-x="852" d="M20 400v85h71v36q0 89 45.5 137t134.5 48q32 0 66 -8l-9 -89q-20 5 -43 5q-47 0 -65.5 -22.5t-18.5 -77.5v-29h186v40q0 181 213 181q69 0 143 -13l-8 -90q-59 11 -120 11q-64 0 -91 -21.5t-27 -76.5v-31h291v-485h-110v400h-181v-400h-110v400h-186v-400h-110v400h-71z " />
<glyph unicode="&#xfb04;" horiz-adv-x="854" d="M20 400v85h71v36q0 89 45.5 137t134.5 48q32 0 66 -8l-9 -89q-20 5 -43 5q-47 0 -65.5 -22.5t-18.5 -77.5v-29h186v40q0 90 52 135.5t168 45.5q93 0 186 -22v-684h-110v608q-38 7 -83 7q-57 0 -80 -23t-23 -78v-29h103l-6 -85h-97v-400h-110v400h-186v-400h-110v400h-71z " />
<glyph horiz-adv-x="0" />
<glyph horiz-adv-x="0" />
<glyph horiz-adv-x="333" />
<glyph unicode="&#xd;" horiz-adv-x="186" />
<glyph unicode=" "  horiz-adv-x="186" />
<glyph unicode="&#x09;" horiz-adv-x="186" />
<glyph unicode="&#xa0;" horiz-adv-x="186" />
<glyph unicode="!" horiz-adv-x="266" d="M70 50v9q0 66 63 66q62 0 62 -66v-9q0 -33 -14 -49.5t-48 -16.5q-63 0 -63 66zM76 422v252h113v-252l-12 -218h-89z" />
<glyph unicode="&#x22;" horiz-adv-x="410" d="M53 497v231h119l-22 -231h-97zM247 497v231h119l-22 -231h-97z" />
<glyph unicode="#" d="M25 155v100h79l21 130h-100v100h112l26 174h101l-25 -174h111l26 174h101l-26 -174h67v-100h-80l-20 -130h100v-100h-114l-22 -155h-101l23 155h-112l-23 -155h-101l23 155h-66zM205 255h112l20 130h-112z" />
<glyph unicode="$" d="M48 497q0 76 53.5 125.5t147.5 59.5v99h70v-97q69 -5 136 -29l-10 -112q-65 29 -126 33v-190l17 -5q81 -30 120.5 -72.5t39.5 -115.5q0 -89 -53 -139.5t-146 -61.5v-93h-70v90q-86 5 -168 33l8 113q81 -36 160 -38v195l-15 6q-79 27 -121.5 73.5t-42.5 125.5zM180 497 q0 -54 69 -85v161q-69 -14 -69 -76zM297 103q66 15 66 79q0 33 -16 51.5t-50 33.5v-164z" />
<glyph unicode="%" horiz-adv-x="832" d="M63 494q0 100 32.5 148t101.5 48t101.5 -48t32.5 -148t-32.5 -148.5t-101.5 -48.5t-101.5 48.5t-32.5 148.5zM151 494q0 -122 46 -122q24 0 35 28t11 94q0 121 -46 121t-46 -121zM191 37l378 667l80 -44l-378 -670zM501 181q0 100 32.5 148t101.5 48t101.5 -48t32.5 -148 t-32.5 -148.5t-101.5 -48.5t-101.5 48.5t-32.5 148.5zM589 181q0 -122 46 -122q24 0 35 28t11 94q0 121 -46 121t-46 -121z" />
<glyph unicode="&#x26;" horiz-adv-x="662" d="M28 168v6q0 58 37.5 110.5t103.5 91.5q-72 78 -72 159q0 65 49.5 110t132.5 45q72 0 119 -43t47 -109q0 -95 -129 -177q88 -95 149 -151q30 62 32 151h95q-9 -125 -55 -217q54 -54 113 -73l-35 -87q-72 16 -143 83q-77 -83 -208 -83q-114 0 -175 52.5t-61 131.5zM144 179 q0 -46 34 -75.5t90 -29.5q91 0 134 55q-80 73 -176 178q-82 -54 -82 -128zM201 533q0 -46 57 -109q83 54 83 109q0 27 -18.5 45.5t-49.5 18.5q-33 0 -52.5 -17.5t-19.5 -46.5z" />
<glyph unicode="'" horiz-adv-x="216" d="M53 497v231h119l-22 -231h-97z" />
<glyph unicode="(" horiz-adv-x="385" d="M77 291q0 247 204 440l62 -49q-149 -168 -149 -392q0 -222 148 -392l-60 -48q-205 195 -205 441z" />
<glyph unicode=")" horiz-adv-x="385" d="M43 -102q148 170 148 392q0 223 -148 392l61 49q205 -194 205 -440t-205 -441z" />
<glyph unicode="*" horiz-adv-x="364" d="M21 540l32 80l98 -54l-13 112h86l-14 -114l100 56l32 -79l-113 -31l82 -85l-69 -51l-60 102l-61 -101l-69 52l82 83z" />
<glyph unicode="+" d="M70 215v98h148v153h106v-153h149v-98h-149v-152h-106v152h-148z" />
<glyph unicode="," horiz-adv-x="235" d="M38 -150q42 74 59 129q-50 11 -50 74v10q0 69 70 69q38 0 54.5 -20t16.5 -64q0 -82 -83 -223z" />
<glyph unicode="-" horiz-adv-x="290" d="M40 197v99h210v-99h-210z" />
<glyph unicode="." horiz-adv-x="235" d="M47 54v9q0 69 71 69q70 0 70 -69v-9q0 -70 -70 -70q-71 0 -71 70z" />
<glyph unicode="/" horiz-adv-x="406" d="M19 -16l250 706h117l-249 -706h-118z" />
<glyph unicode="0" d="M44 337q0 187 54 270t173 83t173 -84t54 -269q0 -183 -54.5 -268t-172.5 -85t-172.5 85t-54.5 268zM171 337q0 -135 23 -191.5t77 -56.5t77 56.5t23 191.5t-23 191.5t-77 56.5t-77 -56.5t-23 -191.5z" />
<glyph unicode="1" d="M59 557l196 117h95v-579h134v-95h-403v95h149v451l-139 -83z" />
<glyph unicode="2" d="M57 95l97 92q109 106 152 168.5t43 136.5q0 95 -105 95q-72 0 -155 -42l-13 102q91 43 190 43q93 0 151 -47.5t58 -135.5q0 -85 -42 -157t-152 -175l-86 -80h266v-95h-392z" />
<glyph unicode="3" d="M53 20l13 103q79 -34 154 -34q63 0 96 28.5t33 82.5q0 108 -146 108h-30v91h30q58 0 91 27.5t33 77.5q0 83 -104 83q-66 0 -138 -30l-15 99q90 34 176 34q92 0 149.5 -43t57.5 -129q0 -55 -26 -95.5t-76 -58.5v-3q58 -14 91 -56t33 -105q0 -104 -65.5 -160t-181.5 -56 q-96 0 -175 36z" />
<glyph unicode="4" d="M24 166v86q140 240 258 422h146v-413h87v-95h-87v-166h-120v166h-284zM140 261h168v281q-19 -30 -168 -281z" />
<glyph unicode="5" d="M56 15l14 100q79 -29 161 -29q73 0 101 38q23 32 23 83q0 56 -28 82t-89 26q-48 0 -117 -20l-35 15l4 364h350l-6 -94h-232l-4 -177q39 12 88 12q91 0 143 -52t52 -150q0 -112 -63 -170.5t-177 -58.5q-97 0 -185 31z" />
<glyph unicode="6" d="M41 291q0 81 17 150.5t52 126.5t94.5 89.5t138.5 32.5q56 0 91 -11l-14 -96q-25 7 -68 7q-72 0 -116 -44q-43 -44 -59 -141q51 30 121 30q97 0 150 -56t53 -154q0 -103 -59.5 -172t-163.5 -69q-237 0 -237 307zM168 305q-4 -40 2 -85q9 -68 32.5 -101t73.5 -33 q48 0 73.5 34t25.5 95q0 119 -102 119q-54 0 -105 -29z" />
<glyph unicode="7" d="M53 579v95h428v-99l-266 -575h-127l270 579h-305z" />
<glyph unicode="8" d="M43 181q0 57 32.5 104.5t90.5 75.5q-100 62 -100 155q0 78 58.5 126t150.5 48q90 0 147 -45t57 -125q0 -46 -29 -88.5t-80 -70.5q129 -65 129 -176q0 -93 -65 -147t-164 -54q-97 0 -162 51t-65 146zM169 188q0 -47 28.5 -75t74.5 -28t73.5 27.5t27.5 73.5q0 38 -26 66.5 t-84 56.5q-43 -18 -68.5 -49t-25.5 -72zM189 516q0 -63 87 -109q35 17 57.5 46t22.5 64q0 38 -22.5 59t-59.5 21q-38 0 -61.5 -21.5t-23.5 -59.5z" />
<glyph unicode="9" d="M38 458q0 102 63.5 167t166.5 65q233 0 233 -304q0 -80 -16.5 -149.5t-51 -127.5t-95 -91.5t-140.5 -33.5q-58 0 -91 11l13 97q25 -8 69 -8q145 0 176 184q-52 -30 -119 -30q-97 0 -152.5 59t-55.5 161zM165 459q0 -58 27 -89.5t76 -31.5q56 0 106 30q2 24 2 44 q3 177 -108 177q-47 0 -75 -35t-28 -95z" />
<glyph unicode=":" horiz-adv-x="235" d="M43 54v9q0 69 71 69q70 0 70 -69v-9q0 -70 -70 -70q-71 0 -71 70zM43 423v9q0 69 71 69q70 0 70 -69v-9q0 -70 -70 -70q-71 0 -71 70z" />
<glyph unicode=";" horiz-adv-x="235" d="M38 -150q42 74 59 129q-50 11 -50 74v10q0 69 70 69q38 0 54.5 -20t16.5 -64q0 -82 -83 -223zM47 423v9q0 69 71 69q70 0 70 -69v-9q0 -70 -70 -70q-71 0 -71 70z" />
<glyph unicode="&#x3c;" d="M100 229v68l298 188l46 -81l-223 -140v-4l226 -138l-48 -80z" />
<glyph unicode="=" d="M70 107v99h403v-99h-403zM70 324v98h403v-98h-403z" />
<glyph unicode="&#x3e;" d="M96 122l226 137v4l-223 141l46 81l298 -188v-68l-299 -187z" />
<glyph unicode="?" horiz-adv-x="450" d="M32 657q85 33 174 33q94 0 149 -44.5t55 -141.5q0 -178 -178 -195l-10 -114h-95l-12 188l27 2q78 7 112.5 32.5t34.5 80.5q0 48 -25.5 69.5t-79.5 21.5q-73 0 -144 -32zM111 53v8q0 67 66 67t66 -67v-8q0 -69 -66 -69t-66 69z" />
<glyph unicode="@" horiz-adv-x="798" d="M26 300q0 168 116 280t297 112q149 0 246 -82.5t97 -216.5q0 -107 -58.5 -176.5t-149.5 -69.5q-39 0 -67.5 16.5t-40.5 43.5q-41 -55 -111 -55q-58 0 -94 39.5t-36 106.5q0 93 46 153.5t117 60.5q56 0 98 -35l7 29h86l-26 -156q-12 -74 -12 -90q0 -39 43 -39 q48 0 74.5 46.5t26.5 119.5q0 94 -71.5 154.5t-183.5 60.5q-127 0 -213.5 -83.5t-86.5 -213.5q0 -113 68 -176.5t190 -63.5q104 0 188 28l-21 -87q-66 -24 -177 -24q-162 0 -257 84t-95 234zM318 304q0 -39 16 -60.5t43 -21.5q48 0 72 50q1 14 7 51l15 94q-24 26 -61 26 q-41 0 -66.5 -39t-25.5 -100z" />
<glyph unicode="A" horiz-adv-x="599" d="M20 0q100 360 219 674h121q113 -299 219 -674h-124q0 1 -35 137q-51 -8 -116 -8q-64 0 -125 8q-18 -66 -36 -137h-123zM208 247q42 -6 91 -6q33 0 91 6q-54 181 -89 283h-4q-44 -133 -89 -283z" />
<glyph unicode="B" horiz-adv-x="588" d="M76 0v674h178q49 0 82.5 -3t67.5 -13.5t54 -28.5t32.5 -49t12.5 -75q0 -48 -24 -87.5t-69 -53.5v-2q64 -11 101.5 -54.5t37.5 -109.5q0 -51 -15.5 -88.5t-39 -58t-61 -32.5t-72 -15.5t-81.5 -3.5h-204zM196 106h82q38 0 59.5 2.5t43.5 11.5t32 29t10 53q0 94 -127 94 h-100v-190zM196 402h76q57 0 82.5 19.5t25.5 67.5q0 42 -23 60.5t-83 18.5h-78v-166z" />
<glyph unicode="C" horiz-adv-x="551" d="M47 333v7q0 173 79.5 261.5t226.5 88.5q88 0 158 -35l-13 -111q-64 32 -135 32q-190 0 -190 -240v-5q0 -236 184 -236q76 0 145 30l9 -106q-73 -35 -164 -35q-300 0 -300 349z" />
<glyph unicode="D" horiz-adv-x="637" d="M76 0v674h169q182 0 263.5 -72.5t81.5 -260.5v-7q0 -197 -103 -278q-71 -56 -252 -56h-159zM196 109h43q18 0 50 2q97 6 136 58t39 170v3q0 59 -7.5 97.5t-29 68.5t-61.5 43.5t-102 13.5h-68v-456z" />
<glyph unicode="E" horiz-adv-x="528" d="M76 0v674h407l-13 -109h-274v-167h246l-12 -109h-234v-180h281l-11 -109h-390z" />
<glyph unicode="F" horiz-adv-x="513" d="M76 0v674h407l-12 -109h-275v-167h246l-10 -109h-236v-289h-120z" />
<glyph unicode="G" horiz-adv-x="620" d="M47 327v7q0 172 82.5 264t231.5 92q93 0 186 -39l-13 -110q-82 37 -159 37q-98 0 -150 -62t-52 -180v-3q0 -241 183 -241q43 0 79 13v156h-99l-9 102h227v-339q-94 -40 -195 -40q-312 0 -312 343z" />
<glyph unicode="H" horiz-adv-x="657" d="M76 0v674h120v-276h265v276h120v-674h-120v289h-265v-289h-120z" />
<glyph unicode="I" horiz-adv-x="278" d="M79 0v674h120v-674h-120z" />
<glyph unicode="J" horiz-adv-x="425" d="M25 1l5 98q45 -12 78 -12q70 0 98 41q22 31 22 121v425h120v-428q0 -146 -59 -204t-166 -58q-53 0 -98 17z" />
<glyph unicode="K" horiz-adv-x="574" d="M76 0v674h120v-300q127 114 220 300h125q-91 -177 -209 -311l222 -363h-140l-169 285q-26 -24 -49 -39v-246h-120z" />
<glyph unicode="L" horiz-adv-x="489" d="M76 0v674h120v-565h265l-10 -109h-375z" />
<glyph unicode="M" horiz-adv-x="797" d="M62 0q13 352 36 674h102q88 -192 199 -442q85 190 201 442h99q28 -367 36 -674h-116q-3 189 -18 443q-29 -69 -92 -210.5t-74 -166.5h-75l-164 377q-13 -253 -18 -443h-116z" />
<glyph unicode="N" horiz-adv-x="681" d="M76 0v674h102l316 -453v453h111v-674h-96l-322 461v-461h-111z" />
<glyph unicode="O" horiz-adv-x="638" d="M47 334v6q0 350 272 350t272 -350v-6q0 -350 -272 -350t-272 350zM174 337q0 -122 33.5 -182t111.5 -60t111.5 59.5t33.5 182.5q0 122 -33.5 182t-111.5 60t-111.5 -60t-33.5 -182z" />
<glyph unicode="P" horiz-adv-x="558" d="M76 0v674h166q139 0 208.5 -47t69.5 -170v-5q0 -110 -65.5 -164t-185.5 -54h-73v-234h-120zM196 343h39q35 0 54 1.5t42.5 7t35 17.5t19.5 34t8 54v3q0 59 -36 84q-29 21 -122 21h-40v-222z" />
<glyph unicode="Q" horiz-adv-x="638" d="M47 334v6q0 350 272 350t272 -350v-6q0 -215 -102 -297l99 -103l-99 -69q-73 85 -104 125q-30 -6 -66 -6q-272 0 -272 350zM174 337q0 -122 33.5 -182t111.5 -60t111.5 59.5t33.5 182.5q0 122 -33.5 182t-111.5 60t-111.5 -60t-33.5 -182z" />
<glyph unicode="R" horiz-adv-x="566" d="M76 0v674h170q61 0 105.5 -8.5t84 -30.5t60 -65t20.5 -107v-5q0 -151 -118 -198l133 -260h-125l-113 239q-12 -1 -37 -1h-60v-238h-120zM196 345h52q80 0 110.5 20.5t30.5 90.5v2q0 58 -32 83t-101 25h-60v-221z" />
<glyph unicode="S" horiz-adv-x="510" d="M46 499q0 86 62.5 138.5t168.5 52.5q83 0 157 -31l-10 -113q-71 34 -139 34q-51 0 -82 -20t-31 -61q0 -38 26 -60t76 -41l46 -17q77 -30 115 -73t38 -117q0 -103 -64.5 -155t-175.5 -52q-87 0 -177 33l8 115q85 -39 159 -39q65 0 94.5 20t29.5 67q0 41 -22.5 60t-77.5 40 l-45 17q-75 28 -115.5 75t-40.5 127z" />
<glyph unicode="T" horiz-adv-x="531" d="M28 565v109h477l-12 -109h-169v-565h-120v565h-176z" />
<glyph unicode="U" horiz-adv-x="642" d="M73 251v423h120v-415q0 -88 28.5 -126t99.5 -38t99.5 38t28.5 126v415h120v-423q0 -140 -58 -203.5t-190 -63.5t-190 63.5t-58 203.5z" />
<glyph unicode="V" horiz-adv-x="600" d="M20 674h128q34 -136 151 -517h2q117 381 151 517h128q-87 -330 -214 -674h-132q-127 344 -214 674z" />
<glyph unicode="W" horiz-adv-x="897" d="M21 674h127q52 -258 126 -520h2q27 111 40.5 167.5t34.5 162.5t32 190h135q12 -74 37 -195q40 -185 76 -325h2q57 202 119 520h124q-80 -363 -176 -674h-137q-60 224 -110 498h-2q-47 -250 -112 -498h-137q-108 357 -181 674z" />
<glyph unicode="X" horiz-adv-x="591" d="M22 0q99 190 199 340q-105 161 -189 334h137q50 -123 126 -236q79 113 129 236h137q-85 -180 -192 -333q114 -177 202 -341h-147q-59 130 -128 238h-1q-63 -94 -130 -238h-143z" />
<glyph unicode="Y" horiz-adv-x="548" d="M20 674h125q63 -197 127 -330h4q62 125 127 330h125q-74 -223 -195 -450v-224h-119v224q-121 222 -194 450z" />
<glyph unicode="Z" horiz-adv-x="542" d="M42 93l300 472h-282v109h433v-91l-299 -474h304l-13 -109h-434z" />
<glyph unicode="[" horiz-adv-x="353" d="M78 -94v784h205v-86h-100v-613h100v-85h-205z" />
<glyph unicode="\" horiz-adv-x="406" d="M19 690h118l250 -706h-118z" />
<glyph unicode="]" horiz-adv-x="353" d="M70 -9h99v613h-99v86h205v-784h-205v85z" />
<glyph unicode="^" d="M37 327l187 324h94l187 -324l-87 -48l-147 255h-1l-147 -255z" />
<glyph unicode="_" horiz-adv-x="493" d="M4 -64h485v-77h-485v77z" />
<glyph unicode="`" horiz-adv-x="366" d="M50 655l54 86l213 -128l-38 -69z" />
<glyph unicode="a" horiz-adv-x="502" d="M34 131q0 87 68 133t204 46h22v22q0 42 -24.5 59.5t-76.5 17.5q-74 0 -145 -34l-15 90q90 36 182 36q93 0 141.5 -41t48.5 -135v-235q0 -21 6.5 -28.5t27.5 -7.5v-62q-26 -8 -60 -8q-65 0 -79 56q-54 -56 -148 -56q-65 0 -108.5 38.5t-43.5 108.5zM150 142 q0 -31 18.5 -49.5t54.5 -18.5q65 0 105 42v117h-20q-158 0 -158 -91z" />
<glyph unicode="b" horiz-adv-x="540" d="M57 0q2 49 2 160v530h111v-238q60 49 139 49q95 0 143 -66t48 -188v-5q0 -258 -196 -258q-87 0 -150 60l-5 -44h-92zM170 132q19 -20 47 -33.5t54 -13.5q61 0 87 38.5t26 120.5q0 80 -24 117.5t-84 37.5t-106 -41v-226z" />
<glyph unicode="c" horiz-adv-x="453" d="M40 237v5q0 130 65.5 194.5t174.5 64.5q79 0 138 -31l-9 -98q-49 31 -115 31q-138 0 -138 -161v-3q0 -159 136 -159q60 0 119 24l8 -93q-62 -27 -142 -27q-125 0 -181 69q-56 67 -56 184z" />
<glyph unicode="d" horiz-adv-x="540" d="M39 237v6q0 117 55.5 187.5t158.5 70.5q71 0 117 -36v225h111v-494q0 -70 2 -196h-94l-7 43h-1q-57 -59 -149 -59q-88 0 -140.5 67t-52.5 186zM155 242q0 -158 112 -158q59 0 103 46v236q-38 35 -97 35q-118 0 -118 -159z" />
<glyph unicode="e" horiz-adv-x="509" d="M40 241v2q0 117 57 187.5t167 70.5q105 0 155 -61.5t50 -189.5q0 -14 -2 -54h-311q10 -118 131 -118q83 0 148 25l7 -89q-69 -30 -158 -30q-244 0 -244 257zM155 276h201q0 136 -95 136q-102 0 -106 -136z" />
<glyph unicode="f" horiz-adv-x="320" d="M20 400v85h71v36q0 89 45.5 137t134.5 48q32 0 66 -8l-9 -89q-20 5 -43 5q-47 0 -65 -22.5t-18 -77.5v-29h104l-6 -85h-98v-400h-111v400h-71z" />
<glyph unicode="g" horiz-adv-x="512" d="M20 -81q0 33 21 60.5t53 39.5q-42 25 -42 73q0 52 63 91q-33 20 -53.5 56.5t-20.5 84.5v5q0 84 58 128t150 44q82 0 137 -35q53 49 127 61l-11 -96q-48 -4 -71 -15q26 -45 26 -87v-5q0 -88 -59 -130.5t-149 -42.5q-24 0 -68 7q-15 -4 -24.5 -14.5t-9.5 -23.5 q0 -32 42 -32h127q76 0 120.5 -34.5t44.5 -101.5q0 -76 -71 -123.5t-163 -47.5q-107 0 -167 37.5t-60 100.5zM122 -63q0 -33 32 -53t94 -20q56 0 91.5 22t35.5 58q0 56 -66 56q-113 0 -151 2q-36 -25 -36 -65zM159 326q0 -47 24 -71t67 -24q41 0 65 24.5t24 70.5 q0 45 -24 70t-65 25q-43 0 -67 -25t-24 -70z" />
<glyph unicode="h" horiz-adv-x="540" d="M57 0v690h111v-250q64 61 154 61q85 0 123.5 -46t38.5 -139v-316h-111v298q0 53 -18 77t-65 24q-32 0 -65.5 -15t-56.5 -39v-345h-111z" />
<glyph unicode="i" horiz-adv-x="239" d="M57 620v8q0 68 63 68t63 -68v-8q0 -68 -63 -68t-63 68zM64 0v485h111v-485h-111z" />
<glyph unicode="j" horiz-adv-x="237" d="M-43 -210l9 89q14 -3 33 -3q33 0 48.5 25t15.5 85v499h111v-473q0 -111 -36 -169t-132 -58q-27 0 -49 5zM56 620v8q0 68 63 68t63 -68v-8q0 -66 -63 -66t-63 66z" />
<glyph unicode="k" horiz-adv-x="471" d="M57 0v690h111v-398q99 84 160 193h117q-63 -122 -150 -208l163 -277h-124l-121 206q-13 -11 -45 -31v-175h-111z" />
<glyph unicode="l" horiz-adv-x="233" d="M61 0v690h111v-690h-111z" />
<glyph unicode="m" horiz-adv-x="815" d="M57 0v485h98l6 -50h1q26 29 66 47.5t82 18.5q91 0 130 -68q71 68 163 68q157 0 157 -181v-320h-111v297q0 54 -18 76q-19 25 -62 25q-60 0 -106 -55v-343h-111v294q0 53 -16 78.5t-59 25.5q-63 0 -109 -58v-340h-111z" />
<glyph unicode="n" horiz-adv-x="539" d="M57 0v485h97l6 -53h1q67 69 161 69q84 0 123 -46t39 -139v-316h-111v298q0 55 -19 78t-64 23q-69 0 -122 -58v-341h-111z" />
<glyph unicode="o" horiz-adv-x="539" d="M40 240v5q0 124 57.5 190t172.5 66q114 0 171.5 -66t57.5 -190v-5q0 -124 -57.5 -190t-171.5 -66q-115 0 -172.5 66t-57.5 190zM156 242q0 -85 27.5 -125t86.5 -40q58 0 85.5 40t27.5 125q0 86 -27.5 126t-85.5 40q-59 0 -86.5 -40.5t-27.5 -125.5z" />
<glyph unicode="p" horiz-adv-x="541" d="M57 -199v684h94l6 -49h2q57 65 150 65t142.5 -65.5t49.5 -185.5v-5q0 -119 -52.5 -190t-154.5 -71q-72 0 -126 41v-224h-111zM168 119q43 -34 96 -34q121 0 121 159q0 70 -22 112t-84 42q-65 0 -111 -52v-227z" />
<glyph unicode="q" horiz-adv-x="540" d="M40 237v5q0 49 12 93.5t36 82.5t66.5 60.5t98.5 22.5q84 0 131 -56l6 40h93v-684h-111v229q-51 -46 -135 -46q-96 0 -146.5 67.5t-50.5 185.5zM156 237q0 -154 110 -154q61 0 106 43v227q-19 21 -46.5 34t-52.5 13q-117 0 -117 -163z" />
<glyph unicode="r" horiz-adv-x="336" d="M57 0v485h96l8 -67h1q58 78 155 78q0 -5 -1.5 -54t-1.5 -53q-92 -3 -146 -57v-332h-111z" />
<glyph unicode="s" horiz-adv-x="416" d="M35 354q0 68 52 107.5t136 39.5q69 0 133 -23l-11 -93q-50 25 -111 25q-86 0 -86 -54q0 -23 17.5 -36t56.5 -24l35 -10q69 -20 100 -53.5t31 -96.5q0 -76 -51 -114t-145 -38q-83 0 -151 27l10 93q65 -30 131 -30q48 0 71 12.5t23 42.5q0 26 -15 38t-62 26l-35 10 q-129 37 -129 151z" />
<glyph unicode="t" horiz-adv-x="346" d="M16 400v85h72v129l111 16v-145h113l-4 -85h-109v-231q0 -60 16 -77.5t54 -17.5q22 0 44 6l5 -88q-32 -8 -69 -8q-91 0 -126 42.5t-35 131.5v242h-72z" />
<glyph unicode="u" horiz-adv-x="524" d="M55 233v252h111v-262q0 -88 17 -117t79 -29t79 29t17 117v262h111v-252q0 -139 -40.5 -194t-166.5 -55q-125 0 -166 55t-41 194z" />
<glyph unicode="v" horiz-adv-x="455" d="M14 485h117q27 -132 96 -361h2q72 253 96 361h116q-27 -103 -76.5 -255.5t-81.5 -229.5h-114q-31 76 -80 228.5t-75 256.5z" />
<glyph unicode="w" horiz-adv-x="721" d="M14 485h116q42 -186 87 -351h4q44 159 86 351h107q44 -194 86 -351h2q52 184 89 351h116q-79 -274 -152 -485h-107q-27 96 -86 323h-3q-5 -20 -38 -142t-49 -181h-106q-92 266 -152 485z" />
<glyph unicode="x" horiz-adv-x="471" d="M14 0q67 133 156 242q-101 148 -150 243h126q41 -94 85 -157h3q48 66 89 157h117q-69 -133 -146 -242q78 -97 163 -243h-133q-51 99 -92 156h-2q-49 -67 -90 -156h-126z" />
<glyph unicode="y" horiz-adv-x="469" d="M16 485h117q49 -219 104 -361h2q43 122 92 361h116q-70 -309 -152 -491q-52 -116 -100.5 -162.5t-114.5 -46.5q-38 0 -60 6l5 92q19 -7 48 -7q64 0 111 118q-93 190 -168 491z" />
<glyph unicode="z" horiz-adv-x="429" d="M27 61l225 339h-213v85h348v-68l-229 -332h239l-19 -85h-339z" />
<glyph unicode="{" horiz-adv-x="369" d="M55 258v69q68 12 69 79l2 158q0 67 35 105t103 38h63v-85h-40q-33 0 -45 -13.5t-12 -52.5l-1 -125q-1 -62 -19 -93.5t-64 -44.5v-2q45 -12 63.5 -44t19.5 -93l1 -124q0 -39 12 -53t45 -14h40v-84h-63q-68 0 -102.5 37.5t-35.5 105.5l-2 158q-1 66 -69 78z" />
<glyph unicode="|" horiz-adv-x="269" d="M82 -16v722h105v-722h-105z" />
<glyph unicode="}" horiz-adv-x="370" d="M35 -37h40q33 0 45 14t12 53l1 124q1 61 19.5 93t63.5 44v2q-46 13 -64 44.5t-19 93.5l-1 125q0 39 -12 52.5t-45 13.5h-40v85h63q68 0 103 -38t35 -105l2 -158q1 -67 69 -79v-69q-68 -12 -69 -78l-2 -158q-1 -68 -35.5 -105.5t-102.5 -37.5h-63v84z" />
<glyph unicode="~" d="M20 263q60 118 155 118q46 0 100 -36l27 -18q37 -24 63 -24q45 0 83 71l71 -55q-59 -115 -149 -115q-52 0 -100 31l-26 17q-36 24 -63 24q-47 0 -87 -70z" />
<glyph unicode="&#xa1;" horiz-adv-x="266" d="M70 426v9q0 66 63 66q34 0 48 -16.5t14 -49.5v-9q0 -66 -62 -66q-63 0 -63 66zM76 63l12 218h89l12 -218v-252h-113v252z" />
<glyph unicode="&#xa2;" d="M74 328v5q0 118 54.5 182t147.5 74v101h70v-100q62 -6 106 -29l-9 -98q-42 25 -97 30v-322q54 5 99 24l8 -93q-42 -19 -107 -26v-92h-70v92q-101 9 -151.5 74t-50.5 178zM190 330q0 -128 86 -153v310q-86 -27 -86 -154v-3z" />
<glyph unicode="&#xa3;" d="M55 303v94h76v65q0 228 217 228q60 0 129 -22l-16 -107q-47 18 -97 18q-61 0 -88 -30.5t-27 -98.5v-53h148v-94h-148v-64q0 -105 -54 -140v-2h268l-9 -97h-391l-4 96q72 32 72 125v82h-76z" />
<glyph unicode="&#xa4;" horiz-adv-x="534" d="M22 102l79 79q-29 46 -29 104q0 54 28 101l-78 79l64 61l76 -77q47 30 105 30t105 -30l76 77l64 -61l-78 -79q28 -47 28 -102q0 -59 -29 -103l79 -79l-64 -62l-78 78q-46 -29 -102 -29q-59 0 -105 29l-77 -78zM164 285q0 -46 30 -75t74 -29q42 0 72 29t30 74 q0 46 -29.5 74.5t-73.5 28.5q-43 0 -73 -28.5t-30 -73.5z" />
<glyph unicode="&#xa5;" d="M21 674h125q77 -244 124 -340h4q47 96 124 340h125q-63 -190 -149 -366h77l-5 -84h-115v-53h115v-84h-115v-87h-119v87h-116v84h116v53h-116l-6 84h78q-89 182 -147 366z" />
<glyph unicode="&#xa6;" horiz-adv-x="267" d="M82 -16v281h103v-281h-103zM82 425v281h103v-281h-103z" />
<glyph unicode="&#xa7;" horiz-adv-x="459" d="M52 346q0 68 66 107q-58 38 -58 107q0 59 47.5 94.5t130.5 35.5q63 0 121 -23l-4 -83q-62 23 -108 23q-83 0 -83 -47q0 -21 17.5 -35.5t63.5 -32.5l56 -22q106 -42 106 -129q0 -65 -62 -112q50 -32 50 -95q0 -74 -48.5 -112t-136.5 -38q-77 0 -148 29l3 86 q87 -30 139 -30q93 0 93 55q0 21 -16.5 35.5t-57.5 31.5l-65 28q-106 45 -106 127zM147 365q0 -25 14 -39t49 -30l73 -33q31 29 31 62q0 45 -68 72l-64 25q-35 -20 -35 -57z" />
<glyph unicode="&#xa8;" horiz-adv-x="366" d="M31 640v7q0 63 62 63q61 0 61 -63v-7q0 -62 -61 -62q-62 0 -62 62zM211 640v7q0 63 62 63t62 -63v-7q0 -62 -62 -62t-62 62z" />
<glyph unicode="&#xa9;" horiz-adv-x="796" d="M46 335q0 160 97 257.5t255 97.5q156 0 254 -101.5t98 -253.5t-98 -253.5t-254 -101.5q-158 0 -255 97.5t-97 257.5zM144 335q0 -113 67 -188.5t187 -75.5t187 75.5t67 188.5t-67 188.5t-187 75.5t-187 -75.5t-67 -188.5zM246 335q0 87 42 135t121 48q44 0 84 -18l-7 -73 q-36 17 -70 17q-82 0 -82 -109q0 -57 19.5 -83t61.5 -26q39 0 74 15l5 -72q-42 -17 -86 -17q-162 0 -162 183z" />
<glyph unicode="&#xaa;" horiz-adv-x="349" d="M22 400q0 61 49 90t130 29h12v9q0 23 -12 33t-41 10q-50 0 -102 -25l-11 71q61 26 124 26q64 0 96 -27.5t32 -92.5v-145q0 -20 24 -20v-55q-18 -6 -42 -6q-46 0 -60 33h-2q-33 -33 -90 -33q-48 0 -77.5 27t-29.5 76zM111 404q0 -18 11.5 -29t31.5 -11q35 0 59 24v71 q-102 0 -102 -55z" />
<glyph unicode="&#xab;" horiz-adv-x="578" d="M40 243l173 243l82 -51l-137 -192l137 -191l-82 -52zM279 243l173 243l82 -51l-138 -192l137 -191l-81 -52z" />
<glyph unicode="&#xac;" d="M70 215v98h403v-241h-101v143h-302z" />
<glyph unicode="&#xad;" horiz-adv-x="290" d="M40 197v99h210v-99h-210z" />
<glyph unicode="&#xae;" horiz-adv-x="796" d="M46 335q0 160 97 257.5t255 97.5q156 0 254 -101.5t98 -253.5t-98 -253.5t-254 -101.5q-158 0 -255 97.5t-97 257.5zM144 335q0 -113 67 -188.5t187 -75.5t187 75.5t67 188.5t-67 188.5t-187 75.5t-187 -75.5t-67 -188.5zM283 158v357h90q90 0 123.5 -28t33.5 -87 q0 -81 -60 -107l67 -135h-82l-54 122q-7 -1 -23 -1h-16v-121h-79zM362 348h28q32 0 44.5 10.5t12.5 40.5q0 26 -12.5 36.5t-44.5 10.5h-28v-98z" />
<glyph unicode="&#xaf;" horiz-adv-x="366" d="M37 594v76h291v-76h-291z" />
<glyph unicode="&#xb0;" horiz-adv-x="322" d="M23 582q0 58 37 98.5t101 40.5q63 0 100 -40.5t37 -98.5q0 -61 -37.5 -99t-99.5 -38t-100 38.5t-38 98.5zM108 582q0 -28 14 -44t39 -16q53 0 53 60q0 28 -13.5 45t-39.5 17q-25 0 -39 -17t-14 -45z" />
<glyph unicode="&#xb1;" d="M70 0v95h402v-95h-402zM70 312v98h148v147h106v-147h148v-98h-148v-147h-106v147h-148z" />
<glyph unicode="&#xb2;" horiz-adv-x="333" d="M40 467l51 47q64 58 82 84q25 36 25 68q0 42 -50 42q-42 0 -95 -25l-10 74q62 29 121 29q58 0 91.5 -28.5t33.5 -78.5q0 -45 -24 -83t-82 -91l-32 -29h140v-73h-245z" />
<glyph unicode="&#xb3;" horiz-adv-x="333" d="M37 413l9 72q44 -17 90 -17q69 0 69 48q0 47 -69 47h-32v64h28q67 0 67 47q0 37 -54 37q-39 0 -82 -16l-8 70q53 21 104 21q62 0 95 -25.5t33 -72.5q0 -60 -51 -86q59 -21 59 -89q0 -58 -39 -89t-109 -31q-55 0 -110 20z" />
<glyph unicode="&#xb4;" horiz-adv-x="366" d="M49 613l213 128l55 -86l-230 -111z" />
<glyph unicode="&#xb6;" horiz-adv-x="529" d="M26 517q0 77 51 125t131 48h260v-788h-91v713h-93v-713h-91v444q-76 9 -121.5 55t-45.5 116z" />
<glyph unicode="&#xb7;" horiz-adv-x="235" d="M47 256v9q0 69 71 69q70 0 70 -69v-9q0 -70 -70 -70q-71 0 -71 70z" />
<glyph unicode="&#xb8;" horiz-adv-x="366" d="M71 -235l17 59q42 -15 74 -15q53 0 53 36q0 37 -59 37q-14 0 -44 -4l-8 9l29 118l68 -8l-12 -57q105 -2 105 -90q0 -51 -33 -78.5t-91 -27.5q-54 0 -99 21z" />
<glyph unicode="&#xb9;" horiz-adv-x="333" d="M33 708l122 68h69v-302h72v-71h-243v71h85v203l-80 -45z" />
<glyph unicode="&#xba;" horiz-adv-x="370" d="M28 467v5q0 82 39.5 126.5t117.5 44.5t117.5 -44.5t39.5 -126.5v-5q0 -82 -39.5 -126t-117.5 -44t-117.5 44t-39.5 126zM117 469q0 -53 16.5 -76t51.5 -23t51.5 23t16.5 76t-16.5 76.5t-51.5 23.5t-51.5 -23.5t-16.5 -76.5z" />
<glyph unicode="&#xbb;" horiz-adv-x="577" d="M44 52l137 191l-137 192l82 51l172 -243l-172 -243zM283 52l137 191l-137 192l81 51l173 -243l-173 -243z" />
<glyph unicode="&#xbc;" horiz-adv-x="832" d="M42 612l122 68h69v-302h72v-71h-243v71h85v203l-80 -45zM202 37l378 667l80 -44l-378 -670zM477 79v58q97 149 156 230h99v-218h50v-70h-50v-85h-86v85h-169zM562 149h84v126q-16 -22 -84 -126z" />
<glyph unicode="&#xbd;" horiz-adv-x="832" d="M42 612l122 68h69v-302h72v-71h-243v71h85v203l-80 -45zM202 37l378 667l80 -44l-378 -670zM540 58l51 47q64 58 82 84q25 35 25 68q0 42 -50 42q-42 0 -95 -25l-10 74q62 29 121 29q58 0 91.5 -28.5t33.5 -78.5q0 -45 -24 -83t-82 -91l-32 -29h140v-73h-245z" />
<glyph unicode="&#xbe;" horiz-adv-x="832" d="M60 317l9 72q44 -17 90 -17q69 0 69 48q0 47 -69 47h-32v64h28q67 0 67 47q0 37 -54 37q-39 0 -82 -16l-8 70q53 21 104 21q62 0 95 -25.5t33 -72.5q0 -60 -51 -86q59 -21 59 -89q0 -58 -39 -89t-109 -31q-55 0 -110 20zM202 37l378 667l80 -44l-378 -670zM477 79v58 q97 149 156 230h99v-218h50v-70h-50v-85h-86v85h-169zM562 149h84v126q-16 -22 -84 -126z" />
<glyph unicode="&#xbf;" horiz-adv-x="450" d="M32 -19q0 178 178 195l10 114h95l12 -188l-27 -2q-78 -7 -112.5 -32.5t-34.5 -80.5q0 -48 25.5 -69.5t79.5 -21.5q73 0 144 32l8 -100q-85 -33 -174 -33q-94 0 -149 44.5t-55 141.5zM199 424v8q0 69 66 69t66 -69v-8q0 -67 -66 -67t-66 67z" />
<glyph unicode="&#xc0;" horiz-adv-x="599" d="M20 0q100 360 219 674h121q113 -299 219 -674h-124q0 1 -35 137q-51 -8 -116 -8q-64 0 -125 8q-18 -66 -36 -137h-123zM149 832l54 87l213 -129l-38 -68zM208 247q42 -6 91 -6q33 0 91 6q-54 181 -89 283h-4q-44 -133 -89 -283z" />
<glyph unicode="&#xc1;" horiz-adv-x="599" d="M20 0q100 360 219 674h121q113 -299 219 -674h-124q0 1 -35 137q-51 -8 -116 -8q-64 0 -125 8q-18 -66 -36 -137h-123zM192 790l212 129l55 -87l-229 -110zM208 247q42 -6 91 -6q33 0 91 6q-54 181 -89 283h-4q-44 -133 -89 -283z" />
<glyph unicode="&#xc2;" horiz-adv-x="599" d="M20 0q100 360 219 674h121q113 -299 219 -674h-124q0 1 -35 137q-51 -8 -116 -8q-64 0 -125 8q-18 -66 -36 -137h-123zM136 784l129 135h69l128 -135l-55 -49l-104 98h-8l-105 -98zM208 247q42 -6 91 -6q33 0 91 6q-54 181 -89 283h-4q-44 -133 -89 -283z" />
<glyph unicode="&#xc3;" horiz-adv-x="599" d="M20 0q100 360 219 674h121q113 -299 219 -674h-124q0 1 -35 137q-51 -8 -116 -8q-64 0 -125 8q-18 -66 -36 -137h-123zM127 805q47 86 113 86q29 0 67 -26t59 -26q33 0 55 45l52 -54q-37 -75 -108 -75q-32 0 -70 24t-54 24q-33 0 -64 -51zM208 247q42 -6 91 -6q33 0 91 6 q-54 181 -89 283h-4q-44 -133 -89 -283z" />
<glyph unicode="&#xc4;" horiz-adv-x="599" d="M20 0q100 360 219 674h121q113 -299 219 -674h-124q0 1 -35 137q-51 -8 -116 -8q-64 0 -125 8q-18 -66 -36 -137h-123zM147 818v6q0 63 62 63q61 0 61 -63v-6q0 -63 -61 -63q-62 0 -62 63zM208 247q42 -6 91 -6q33 0 91 6q-54 181 -89 283h-4q-44 -133 -89 -283zM327 818 v6q0 63 62 63t62 -63v-6q0 -63 -62 -63t-62 63z" />
<glyph unicode="&#xc5;" horiz-adv-x="599" d="M20 0q100 360 219 674h121q113 -299 219 -674h-124q0 1 -35 137q-51 -8 -116 -8q-64 0 -125 8q-18 -66 -36 -137h-123zM196 832q0 43 30.5 73.5t73.5 30.5t72.5 -30t29.5 -74q0 -43 -30.5 -73.5t-73.5 -30.5q-42 0 -72 30.5t-30 73.5zM208 247q42 -6 91 -6q33 0 91 6 q-54 181 -89 283h-4q-44 -133 -89 -283zM263 832q0 -16 10 -26.5t25 -10.5q16 0 26.5 10.5t10.5 26.5t-10 26.5t-26 10.5t-26 -10.5t-10 -26.5z" />
<glyph unicode="&#xc6;" horiz-adv-x="862" d="M22 0q60 136 168 356.5t162 317.5h465l-13 -109h-266v-167h238l-12 -109h-226v-180h273l-11 -109h-382v136q-52 -4 -84 -4q-54 0 -121 5q-39 -86 -59 -137h-132zM262 247q52 -4 82 -4q2 0 74 3v321h-6q-39 -76 -150 -320z" />
<glyph unicode="&#xc7;" horiz-adv-x="551" d="M47 333v7q0 173 79.5 261.5t226.5 88.5q88 0 158 -35l-13 -111q-64 32 -135 32q-190 0 -190 -240v-5q0 -236 184 -236q76 0 145 30l9 -106q-73 -35 -164 -35h-2l-9 -44q105 -2 105 -90q0 -51 -33 -78.5t-91 -27.5q-54 0 -99 21l17 59q42 -15 74 -15q53 0 53 36 q0 37 -59 37q-14 0 -44 -4l-8 9l25 103q-229 37 -229 343z" />
<glyph unicode="&#xc8;" horiz-adv-x="528" d="M76 0v674h407l-13 -109h-274v-167h246l-12 -109h-234v-180h281l-11 -109h-390zM136 832l54 87l213 -129l-38 -68z" />
<glyph unicode="&#xc9;" horiz-adv-x="528" d="M76 0v674h407l-13 -109h-274v-167h246l-12 -109h-234v-180h281l-11 -109h-390zM188 790l212 129l55 -87l-229 -110z" />
<glyph unicode="&#xca;" horiz-adv-x="528" d="M76 0v674h407l-13 -109h-274v-167h246l-12 -109h-234v-180h281l-11 -109h-390zM126 784l129 135h69l128 -135l-55 -49l-104 98h-8l-105 -98z" />
<glyph unicode="&#xcb;" horiz-adv-x="528" d="M76 0v674h407l-13 -109h-274v-167h246l-12 -109h-234v-180h281l-11 -109h-390zM134 818v6q0 63 62 63q61 0 61 -63v-6q0 -63 -61 -63q-62 0 -62 63zM314 818v6q0 63 62 63t62 -63v-6q0 -63 -62 -63t-62 63z" />
<glyph unicode="&#xcc;" horiz-adv-x="278" d="M-14 832l54 87l213 -129l-38 -68zM79 0v674h120v-674h-120z" />
<glyph unicode="&#xcd;" horiz-adv-x="278" d="M29 790l212 129l55 -87l-229 -110zM79 0v674h120v-674h-120z" />
<glyph unicode="&#xce;" horiz-adv-x="278" d="M-24 784l129 135h69l128 -135l-55 -49l-104 98h-8l-105 -98zM79 0v674h120v-674h-120z" />
<glyph unicode="&#xcf;" horiz-adv-x="278" d="M-13 818v6q0 63 62 63q61 0 61 -63v-6q0 -63 -61 -63q-62 0 -62 63zM79 0v674h120v-674h-120zM167 818v6q0 63 62 63t62 -63v-6q0 -63 -62 -63t-62 63z" />
<glyph unicode="&#xd0;" horiz-adv-x="637" d="M7 289v100h69v285h169q182 0 263.5 -72.5t81.5 -260.5q0 -204 -103 -285q-71 -56 -252 -56h-159v289h-69zM196 109h43q133 0 179 48.5t46 184.5q0 59 -7.5 97.5t-29 68.5t-61.5 43.5t-102 13.5h-68v-176h113v-100h-113v-180z" />
<glyph unicode="&#xd1;" horiz-adv-x="681" d="M76 0v674h102l316 -453v453h111v-674h-96l-322 461v-461h-111zM171 805q47 86 113 86q29 0 67 -26t59 -26q33 0 55 45l52 -54q-37 -75 -108 -75q-32 0 -70 24t-54 24q-33 0 -64 -51z" />
<glyph unicode="&#xd2;" horiz-adv-x="638" d="M47 334v6q0 350 272 350t272 -350v-6q0 -350 -272 -350t-272 350zM174 337q0 -122 33.5 -182t111.5 -60t111.5 59.5t33.5 182.5q0 122 -33.5 182t-111.5 60t-111.5 -60t-33.5 -182zM178 832l54 87l213 -129l-38 -68z" />
<glyph unicode="&#xd3;" horiz-adv-x="638" d="M47 334v6q0 350 272 350t272 -350v-6q0 -350 -272 -350t-272 350zM174 337q0 -122 33.5 -182t111.5 -60t111.5 59.5t33.5 182.5q0 122 -33.5 182t-111.5 60t-111.5 -60t-33.5 -182zM207 790l212 129l55 -87l-229 -110z" />
<glyph unicode="&#xd4;" horiz-adv-x="638" d="M47 334v6q0 350 272 350t272 -350v-6q0 -350 -272 -350t-272 350zM158 784l129 135h69l128 -135l-55 -49l-104 98h-8l-105 -98zM174 337q0 -122 33.5 -182t111.5 -60t111.5 59.5t33.5 182.5q0 122 -33.5 182t-111.5 60t-111.5 -60t-33.5 -182z" />
<glyph unicode="&#xd5;" horiz-adv-x="638" d="M47 334v6q0 350 272 350t272 -350v-6q0 -350 -272 -350t-272 350zM150 805q47 86 113 86q29 0 67 -26t59 -26q33 0 55 45l52 -54q-38 -75 -108 -75q-32 0 -70 24t-54 24q-33 0 -64 -51zM174 337q0 -122 33.5 -182t111.5 -60t111.5 59.5t33.5 182.5q0 122 -33.5 182 t-111.5 60t-111.5 -60t-33.5 -182z" />
<glyph unicode="&#xd6;" horiz-adv-x="638" d="M47 334v6q0 350 272 350t272 -350v-6q0 -350 -272 -350t-272 350zM169 818v6q0 63 62 63q61 0 61 -63v-6q0 -63 -61 -63q-62 0 -62 63zM174 337q0 -122 33.5 -182t111.5 -60t111.5 59.5t33.5 182.5q0 122 -33.5 182t-111.5 60t-111.5 -60t-33.5 -182zM349 818v6 q0 63 62 63t62 -63v-6q0 -63 -62 -63t-62 63z" />
<glyph unicode="&#xd7;" d="M72 390l70 70l130 -131l130 131l69 -68l-131 -131l120 -120l-69 -69l-120 120l-120 -120l-68 69l120 120z" />
<glyph unicode="&#xd8;" horiz-adv-x="638" d="M47 334v6q0 350 272 350q75 0 133 -29l47 92l61 -29l-54 -104q85 -86 85 -280v-6q0 -350 -272 -350q-74 0 -128 26l-48 -94l-58 33l51 99q-89 88 -89 286zM174 337q0 -110 25 -167l199 386q-32 23 -79 23q-78 0 -111.5 -60t-33.5 -182zM245 114q29 -19 74 -19 q78 0 111.5 59.5t33.5 182.5q0 99 -22 158z" />
<glyph unicode="&#xd9;" horiz-adv-x="642" d="M73 251v423h120v-415q0 -88 28.5 -126t99.5 -38t99.5 38t28.5 126v415h120v-423q0 -140 -58 -203.5t-190 -63.5t-190 63.5t-58 203.5zM177 832l54 87l213 -129l-38 -68z" />
<glyph unicode="&#xda;" horiz-adv-x="642" d="M73 251v423h120v-415q0 -88 28.5 -126t99.5 -38t99.5 38t28.5 126v415h120v-423q0 -140 -58 -203.5t-190 -63.5t-190 63.5t-58 203.5zM212 790l212 129l55 -87l-229 -110z" />
<glyph unicode="&#xdb;" horiz-adv-x="642" d="M73 251v423h120v-415q0 -88 28.5 -126t99.5 -38t99.5 38t28.5 126v415h120v-423q0 -140 -58 -203.5t-190 -63.5t-190 63.5t-58 203.5zM160 784l129 135h69l128 -135l-55 -49l-104 98h-8l-105 -98z" />
<glyph unicode="&#xdc;" horiz-adv-x="642" d="M73 251v423h120v-415q0 -88 28.5 -126t99.5 -38t99.5 38t28.5 126v415h120v-423q0 -140 -58 -203.5t-190 -63.5t-190 63.5t-58 203.5zM170 818v6q0 63 62 63q61 0 61 -63v-6q0 -63 -61 -63q-62 0 -62 63zM350 818v6q0 63 62 63t62 -63v-6q0 -63 -62 -63t-62 63z" />
<glyph unicode="&#xdd;" horiz-adv-x="548" d="M20 674h125q63 -197 127 -330h4q62 125 127 330h125q-74 -223 -195 -450v-224h-119v224q-121 222 -194 450zM175 790l212 129l55 -87l-229 -110z" />
<glyph unicode="&#xde;" horiz-adv-x="550" d="M76 0v674h120v-107h40q65 0 111.5 -9t86 -32t59 -67t19.5 -110q0 -222 -244 -222h-72v-127h-120zM196 236h37q43 0 65 2.5t45.5 13t33 34t9.5 63.5q0 59 -31.5 84t-101.5 25h-57v-222z" />
<glyph unicode="&#xdf;" horiz-adv-x="558" d="M59 -146v819q97 33 201 33q99 0 162 -45.5t63 -133.5q0 -50 -23.5 -94.5t-65.5 -60.5v-4q60 -15 93.5 -62.5t33.5 -105.5q0 -105 -67 -160.5t-176 -55.5q-30 0 -54 4l5 98q22 -3 43 -3q61 0 97 30t36 86q0 113 -154 113v92q59 2 87.5 27.5t28.5 81.5q0 47 -29 70.5 t-81 23.5q-47 0 -89 -14v-739h-111z" />
<glyph unicode="&#xe0;" horiz-adv-x="502" d="M34 131q0 87 68 133t204 46h22v22q0 42 -24.5 59.5t-76.5 17.5q-74 0 -145 -34l-15 90q90 36 182 36q93 0 141.5 -41t48.5 -135v-235q0 -21 6.5 -28.5t27.5 -7.5v-62q-26 -8 -60 -8q-65 0 -79 56q-54 -56 -148 -56q-65 0 -108.5 38.5t-43.5 108.5zM112 655l54 86 l213 -128l-38 -69zM150 142q0 -31 18.5 -49.5t54.5 -18.5q65 0 105 42v117h-20q-158 0 -158 -91z" />
<glyph unicode="&#xe1;" horiz-adv-x="502" d="M34 131q0 87 68 133t204 46h22v22q0 42 -24.5 59.5t-76.5 17.5q-74 0 -145 -34l-15 90q90 36 182 36q93 0 141.5 -41t48.5 -135v-235q0 -21 6.5 -28.5t27.5 -7.5v-62q-26 -8 -60 -8q-65 0 -79 56q-54 -56 -148 -56q-65 0 -108.5 38.5t-43.5 108.5zM146 613l213 128 l55 -86l-230 -111zM150 142q0 -31 18.5 -49.5t54.5 -18.5q65 0 105 42v117h-20q-158 0 -158 -91z" />
<glyph unicode="&#xe2;" horiz-adv-x="502" d="M34 131q0 87 68 133t204 46h22v22q0 42 -24.5 59.5t-76.5 17.5q-74 0 -145 -34l-15 90q90 36 182 36q93 0 141.5 -41t48.5 -135v-235q0 -21 6.5 -28.5t27.5 -7.5v-62q-26 -8 -60 -8q-65 0 -79 56q-54 -56 -148 -56q-65 0 -108.5 38.5t-43.5 108.5zM91 606l129 136h69 l128 -136l-55 -49l-104 98h-8l-105 -98zM150 142q0 -31 18.5 -49.5t54.5 -18.5q65 0 105 42v117h-20q-158 0 -158 -91z" />
<glyph unicode="&#xe3;" horiz-adv-x="502" d="M34 131q0 87 68 133t204 46h22v22q0 42 -24.5 59.5t-76.5 17.5q-74 0 -145 -34l-15 90q90 36 182 36q93 0 141.5 -41t48.5 -135v-235q0 -21 6.5 -28.5t27.5 -7.5v-62q-26 -8 -60 -8q-65 0 -79 56q-54 -56 -148 -56q-65 0 -108.5 38.5t-43.5 108.5zM84 627q47 86 113 86 q28 0 57 -19l23 -15q27 -18 46 -18q34 0 55 45l52 -53q-38 -77 -108 -77q-32 0 -59 18l-21 14q-25 16 -44 16q-35 0 -64 -50zM150 142q0 -31 18.5 -49.5t54.5 -18.5q65 0 105 42v117h-20q-158 0 -158 -91z" />
<glyph unicode="&#xe4;" horiz-adv-x="502" d="M34 131q0 87 68 133t204 46h22v22q0 42 -24.5 59.5t-76.5 17.5q-74 0 -145 -34l-15 90q90 36 182 36q93 0 141.5 -41t48.5 -135v-235q0 -21 6.5 -28.5t27.5 -7.5v-62q-26 -8 -60 -8q-65 0 -79 56q-54 -56 -148 -56q-65 0 -108.5 38.5t-43.5 108.5zM103 640v7q0 63 62 63 q61 0 61 -63v-7q0 -62 -61 -62q-62 0 -62 62zM150 142q0 -31 18.5 -49.5t54.5 -18.5q65 0 105 42v117h-20q-158 0 -158 -91zM283 640v7q0 63 62 63t62 -63v-7q0 -62 -62 -62t-62 62z" />
<glyph unicode="&#xe5;" horiz-adv-x="502" d="M34 131q0 87 68 133t204 46h22v22q0 42 -24.5 59.5t-76.5 17.5q-74 0 -145 -34l-15 90q90 36 182 36q93 0 141.5 -41t48.5 -135v-235q0 -21 6.5 -28.5t27.5 -7.5v-62q-26 -8 -60 -8q-65 0 -79 56q-54 -56 -148 -56q-65 0 -108.5 38.5t-43.5 108.5zM150 142 q0 -31 18.5 -49.5t54.5 -18.5q65 0 105 42v117h-20q-158 0 -158 -91zM152 664q0 43 30.5 73.5t73.5 30.5t72.5 -30.5t29.5 -73.5q0 -44 -30 -74t-74 -30q-42 0 -72 30.5t-30 73.5zM219 664q0 -16 10 -27t25 -11q16 0 26.5 11t10.5 27t-10 26.5t-26 10.5t-26 -10.5t-10 -26.5 z" />
<glyph unicode="&#xe6;" horiz-adv-x="800" d="M34 134q0 176 273 176h22v22q0 78 -93 78q-72 0 -152 -36l-16 89q93 38 181 38q105 0 147 -69q53 69 159 69q105 0 155 -61.5t50 -189.5q0 -14 -2 -54h-311q10 -118 131 -118q83 0 148 25l7 -89q-69 -30 -158 -30q-131 0 -192 73q-76 -73 -184 -73q-73 0 -119 39t-46 111 zM151 143q0 -31 18.5 -50t54.5 -19q34 0 67 15.5t53 41.5q-14 43 -14 101h-8q-36 0 -62.5 -3t-53 -12t-41 -27.5t-14.5 -46.5zM446 276h201q0 136 -95 136q-102 0 -106 -136z" />
<glyph unicode="&#xe7;" horiz-adv-x="453" d="M40 237v5q0 130 65.5 194.5t174.5 64.5q79 0 138 -31l-9 -98q-49 31 -115 31q-138 0 -138 -161v-3q0 -159 136 -159q60 0 119 24l8 -93q-60 -25 -132 -27l-9 -44q105 -2 105 -90q0 -51 -33 -78.5t-91 -27.5q-54 0 -99 21l17 59q42 -15 74 -15q53 0 53 36q0 37 -59 37 q-14 0 -44 -4l-8 9l25 101q-178 30 -178 249z" />
<glyph unicode="&#xe8;" horiz-adv-x="509" d="M40 241v2q0 117 57 187.5t167 70.5q105 0 155 -61.5t50 -189.5q0 -14 -2 -54h-311q10 -118 131 -118q83 0 148 25l7 -89q-69 -30 -158 -30q-244 0 -244 257zM117 655l54 86l213 -128l-38 -69zM155 276h201q0 136 -95 136q-102 0 -106 -136z" />
<glyph unicode="&#xe9;" horiz-adv-x="509" d="M40 241v2q0 117 57 187.5t167 70.5q105 0 155 -61.5t50 -189.5q0 -14 -2 -54h-311q10 -118 131 -118q83 0 148 25l7 -89q-69 -30 -158 -30q-244 0 -244 257zM149 613l213 128l55 -86l-230 -111zM155 276h201q0 136 -95 136q-102 0 -106 -136z" />
<glyph unicode="&#xea;" horiz-adv-x="509" d="M40 241v2q0 117 57 187.5t167 70.5q105 0 155 -61.5t50 -189.5q0 -14 -2 -54h-311q10 -118 131 -118q83 0 148 25l7 -89q-69 -30 -158 -30q-244 0 -244 257zM100 604l129 136h69l128 -136l-55 -49l-104 98h-8l-105 -98zM155 276h201q0 136 -95 136q-102 0 -106 -136z" />
<glyph unicode="&#xeb;" horiz-adv-x="509" d="M40 241v2q0 117 57 187.5t167 70.5q105 0 155 -61.5t50 -189.5q0 -14 -2 -54h-311q10 -118 131 -118q83 0 148 25l7 -89q-69 -30 -158 -30q-244 0 -244 257zM113 640v7q0 63 62 63q61 0 61 -63v-7q0 -62 -61 -62q-62 0 -62 62zM155 276h201q0 136 -95 136 q-102 0 -106 -136zM293 640v7q0 63 62 63t62 -63v-7q0 -62 -62 -62t-62 62z" />
<glyph unicode="&#xec;" horiz-adv-x="239" d="M-34 655l54 86l213 -128l-38 -69zM64 0v485h111v-485h-111z" />
<glyph unicode="&#xed;" horiz-adv-x="239" d="M12 613l213 128l55 -86l-230 -111zM64 0v485h111v-485h-111z" />
<glyph unicode="&#xee;" horiz-adv-x="239" d="M-44 604l129 136h69l128 -136l-55 -49l-104 98h-8l-105 -98zM64 0v485h111v-485h-111z" />
<glyph unicode="&#xef;" horiz-adv-x="239" d="M-32 640v7q0 63 62 63q61 0 61 -63v-7q0 -62 -61 -62q-62 0 -62 62zM64 0v485h111v-485h-111zM148 640v7q0 63 62 63t62 -63v-7q0 -62 -62 -62t-62 62z" />
<glyph unicode="&#xf0;" horiz-adv-x="535" d="M40 246q0 120 57 182.5t141 62.5q53 0 100 -26q-24 69 -90 116l-71 -53l-36 42l54 42q-33 16 -82 29l75 49q37 -10 75 -27l64 50l38 -43l-46 -36q174 -114 174 -361q0 -141 -59.5 -215t-172.5 -74q-100 0 -160.5 67t-60.5 195zM163 248q0 -81 28 -122.5t75 -41.5 q104 0 104 179q0 57 -10 100q-43 26 -91 26q-106 0 -106 -141z" />
<glyph unicode="&#xf1;" horiz-adv-x="539" d="M57 0v485h97l6 -53h1q67 69 161 69q84 0 123 -46t39 -139v-316h-111v298q0 55 -19 78t-64 23q-69 0 -122 -58v-341h-111zM108 625q47 86 113 86q28 0 57 -19l23 -15q27 -18 46 -18q34 0 55 45l52 -53q-38 -77 -108 -77q-32 0 -59 18l-21 14q-25 16 -44 16q-35 0 -64 -50z " />
<glyph unicode="&#xf2;" horiz-adv-x="539" d="M40 240v5q0 124 57.5 190t172.5 66q114 0 171.5 -66t57.5 -190v-5q0 -124 -57.5 -190t-171.5 -66q-115 0 -172.5 66t-57.5 190zM128 655l54 86l213 -128l-38 -69zM156 242q0 -85 27.5 -125t86.5 -40q58 0 85.5 40t27.5 125q0 86 -27.5 126t-85.5 40q-59 0 -86.5 -40.5 t-27.5 -125.5z" />
<glyph unicode="&#xf3;" horiz-adv-x="539" d="M40 240v5q0 124 57.5 190t172.5 66q114 0 171.5 -66t57.5 -190v-5q0 -124 -57.5 -190t-171.5 -66q-115 0 -172.5 66t-57.5 190zM156 242q0 -85 27.5 -125t86.5 -40q58 0 85.5 40t27.5 125q0 86 -27.5 126t-85.5 40q-59 0 -86.5 -40.5t-27.5 -125.5zM157 613l213 128 l55 -86l-230 -111z" />
<glyph unicode="&#xf4;" horiz-adv-x="539" d="M40 240v5q0 124 57.5 190t172.5 66q114 0 171.5 -66t57.5 -190v-5q0 -124 -57.5 -190t-171.5 -66q-115 0 -172.5 66t-57.5 190zM107 604l129 136h69l128 -136l-55 -49l-104 98h-8l-105 -98zM156 242q0 -85 27.5 -125t86.5 -40q58 0 85.5 40t27.5 125q0 86 -27.5 126 t-85.5 40q-59 0 -86.5 -40.5t-27.5 -125.5z" />
<glyph unicode="&#xf5;" horiz-adv-x="539" d="M40 240v5q0 124 57.5 190t172.5 66q114 0 171.5 -66t57.5 -190v-5q0 -124 -57.5 -190t-171.5 -66q-115 0 -172.5 66t-57.5 190zM99 625q47 86 113 86q28 0 57 -19l23 -15q27 -18 46 -18q34 0 55 45l52 -53q-38 -77 -108 -77q-32 0 -59 18l-21 14q-25 16 -44 16 q-35 0 -64 -50zM156 242q0 -85 27.5 -125t86.5 -40q58 0 85.5 40t27.5 125q0 86 -27.5 126t-85.5 40q-59 0 -86.5 -40.5t-27.5 -125.5z" />
<glyph unicode="&#xf6;" horiz-adv-x="539" d="M40 240v5q0 124 57.5 190t172.5 66q114 0 171.5 -66t57.5 -190v-5q0 -124 -57.5 -190t-171.5 -66q-115 0 -172.5 66t-57.5 190zM119 640v7q0 63 62 63q61 0 61 -63v-7q0 -62 -61 -62q-62 0 -62 62zM156 242q0 -85 27.5 -125t86.5 -40q58 0 85.5 40t27.5 125 q0 86 -27.5 126t-85.5 40q-59 0 -86.5 -40.5t-27.5 -125.5zM299 640v7q0 63 62 63t62 -63v-7q0 -62 -62 -62t-62 62z" />
<glyph unicode="&#xf7;" d="M70 215v98h403v-98h-403zM211 85v10q0 64 60 64q62 0 62 -64v-10q0 -65 -62 -65q-60 0 -60 65zM211 434v9q0 65 60 65q62 0 62 -65v-9q0 -65 -62 -65q-60 0 -60 65z" />
<glyph unicode="&#xf8;" horiz-adv-x="539" d="M40 240v5q0 124 57.5 190t172.5 66q63 0 108 -21l49 81l57 -31l-52 -86q67 -64 67 -199v-5q0 -124 -57.5 -190t-171.5 -66q-61 0 -106 18l-45 -75l-53 33l45 76q-71 64 -71 204zM156 242q0 -67 16 -105l155 257q-25 14 -57 14q-59 0 -86.5 -40.5t-27.5 -125.5zM216 88 q24 -11 54 -11q58 0 85.5 40t27.5 125q0 63 -14 99z" />
<glyph unicode="&#xf9;" horiz-adv-x="524" d="M55 233v252h111v-262q0 -88 17 -117t79 -29t79 29t17 117v262h111v-252q0 -139 -40.5 -194t-166.5 -55q-125 0 -166 55t-41 194zM119 655l54 86l213 -128l-38 -69z" />
<glyph unicode="&#xfa;" horiz-adv-x="524" d="M55 233v252h111v-262q0 -88 17 -117t79 -29t79 29t17 117v262h111v-252q0 -139 -40.5 -194t-166.5 -55q-125 0 -166 55t-41 194zM157 613l213 128l55 -86l-230 -111z" />
<glyph unicode="&#xfb;" horiz-adv-x="524" d="M55 233v252h111v-262q0 -88 17 -117t79 -29t79 29t17 117v262h111v-252q0 -139 -40.5 -194t-166.5 -55q-125 0 -166 55t-41 194zM102 604l129 136h69l128 -136l-55 -49l-104 98h-8l-105 -98z" />
<glyph unicode="&#xfc;" horiz-adv-x="524" d="M55 233v252h111v-262q0 -88 17 -117t79 -29t79 29t17 117v262h111v-252q0 -139 -40.5 -194t-166.5 -55q-125 0 -166 55t-41 194zM110 640v7q0 63 62 63q61 0 61 -63v-7q0 -62 -61 -62q-62 0 -62 62zM290 640v7q0 63 62 63t62 -63v-7q0 -62 -62 -62t-62 62z" />
<glyph unicode="&#xfd;" horiz-adv-x="468" d="M19 485h117q49 -219 104 -361h2q43 122 92 361h116q-70 -309 -152 -491q-52 -116 -100.5 -162.5t-114.5 -46.5q-37 0 -60 6l5 92q19 -7 48 -7q64 0 111 118q-93 190 -168 491zM142 613l213 128l55 -86l-230 -111z" />
<glyph unicode="&#xfe;" horiz-adv-x="541" d="M57 -199v889h111v-244q57 55 141 55q93 0 142.5 -65.5t49.5 -185.5v-5q0 -119 -52.5 -190t-154.5 -71q-72 0 -126 41v-224h-111zM168 119q43 -34 96 -34q121 0 121 159q0 70 -22 112t-84 42q-65 0 -111 -52v-227z" />
<glyph unicode="&#xff;" horiz-adv-x="468" d="M19 485h117q49 -219 104 -361h2q43 122 92 361h116q-70 -309 -152 -491q-52 -116 -100.5 -162.5t-114.5 -46.5q-37 0 -60 6l5 92q19 -7 48 -7q64 0 111 118q-93 190 -168 491zM89 640v7q0 63 62 63q61 0 61 -63v-7q0 -62 -61 -62q-62 0 -62 62zM269 640v7q0 63 62 63 t62 -63v-7q0 -62 -62 -62t-62 62z" />
<glyph unicode="&#x152;" horiz-adv-x="865" d="M47 334v6q0 350 239 350q86 0 139 -53v37h405l-13 -109h-274v-167h246l-12 -109h-234v-180h281l-11 -109h-387v43q-19 -27 -55 -43t-78 -16q-125 0 -185.5 93t-60.5 257zM174 337q0 -122 33 -181.5t108 -59.5q66 0 101 43v402q-39 39 -104 39q-74 0 -106 -60.5 t-32 -182.5z" />
<glyph unicode="&#x153;" horiz-adv-x="855" d="M40 240q0 127 57.5 194t173.5 67q117 0 172 -81q51 81 167 81q105 0 155 -61.5t50 -189.5q0 -14 -2 -54h-311q10 -118 131 -118q83 0 148 25l7 -89q-69 -30 -158 -30q-134 0 -189 77q-52 -77 -170 -77q-114 0 -172.5 66t-58.5 190zM155 242q0 -85 28 -126t88 -41 q59 0 87 40t28 123q0 89 -27 130.5t-88 41.5q-60 0 -88 -41t-28 -127zM501 276h201q0 136 -95 136q-102 0 -106 -136z" />
<glyph unicode="&#x178;" horiz-adv-x="548" d="M20 674h125q63 -197 127 -330h4q62 125 127 330h125q-74 -223 -195 -450v-224h-119v224q-121 222 -194 450zM123 818v6q0 63 62 63q61 0 61 -63v-6q0 -63 -61 -63q-62 0 -62 63zM303 818v6q0 63 62 63t62 -63v-6q0 -63 -62 -63t-62 63z" />
<glyph unicode="&#x2c6;" horiz-adv-x="366" d="M20 604l129 136h69l128 -136l-55 -49l-104 98h-8l-105 -98z" />
<glyph unicode="&#x2dc;" horiz-adv-x="366" d="M11 625q47 86 113 86q28 0 57 -19l23 -15q27 -18 46 -18q34 0 55 45l52 -53q-38 -77 -108 -77q-32 0 -59 18l-21 14q-25 16 -44 16q-35 0 -64 -50z" />
<glyph unicode="&#x2013;" horiz-adv-x="500" d="M0 199v95h500v-95h-500z" />
<glyph unicode="&#x2014;" horiz-adv-x="1000" d="M0 199v95h1000v-95h-1000z" />
<glyph unicode="&#x2018;" horiz-adv-x="238" d="M50 532q0 82 83 223l67 -25q-42 -74 -59 -129q50 -11 50 -74v-10q0 -69 -70 -69q-38 0 -54.5 20t-16.5 64z" />
<glyph unicode="&#x2019;" horiz-adv-x="238" d="M38 473q42 74 59 129q-50 11 -50 74v10q0 69 70 69q38 0 54.5 -20t16.5 -64q0 -82 -83 -223z" />
<glyph unicode="&#x201a;" horiz-adv-x="238" d="M38 -150q42 74 59 129q-50 11 -50 74v10q0 69 70 69q38 0 54.5 -20t16.5 -64q0 -82 -83 -223z" />
<glyph unicode="&#x201c;" horiz-adv-x="448" d="M50 532q0 82 83 223l67 -25q-42 -74 -59 -129q50 -11 50 -74v-10q0 -69 -70 -69q-38 0 -54.5 20t-16.5 64zM260 532q0 82 83 223l67 -25q-42 -74 -59 -129q50 -11 50 -74v-10q0 -69 -70 -69q-38 0 -54.5 20t-16.5 64z" />
<glyph unicode="&#x201d;" horiz-adv-x="448" d="M38 473q42 74 59 129q-50 11 -50 74v10q0 69 70 69q38 0 54.5 -20t16.5 -64q0 -82 -83 -223zM248 473q42 74 59 129q-50 11 -50 74v10q0 69 70 69q38 0 54.5 -20t16.5 -64q0 -82 -83 -223z" />
<glyph unicode="&#x201e;" horiz-adv-x="448" d="M38 -150q42 74 59 129q-50 11 -50 74v10q0 69 70 69q38 0 54.5 -20t16.5 -64q0 -82 -83 -223zM248 -150q42 74 59 129q-50 11 -50 74v10q0 69 70 69q38 0 54.5 -20t16.5 -64q0 -82 -83 -223z" />
<glyph unicode="&#x2022;" horiz-adv-x="369" d="M54 240v14q0 66 29.5 100t101.5 34q71 0 100.5 -34t29.5 -100v-14q0 -66 -29.5 -100t-100.5 -34q-72 0 -101.5 34t-29.5 100z" />
<glyph unicode="&#x2026;" horiz-adv-x="705" d="M47 54v9q0 69 71 69q70 0 70 -69v-9q0 -70 -70 -70q-71 0 -71 70zM282 54v9q0 69 71 69q70 0 70 -69v-9q0 -70 -70 -70q-71 0 -71 70zM517 54v9q0 69 71 69q70 0 70 -69v-9q0 -70 -70 -70q-71 0 -71 70z" />
<glyph unicode="&#x2039;" horiz-adv-x="339" d="M40 243l173 243l82 -51l-137 -192l137 -191q-72 -45 -82 -52z" />
<glyph unicode="&#x203a;" horiz-adv-x="339" d="M44 52l137 191l-137 192l82 51l173 -243l-173 -243z" />
<glyph unicode="&#x20ac;" d="M17 211l10 86h67q-1 11 -1 31q0 19 1 28h-69l9 86h69q20 121 89 184.5t181 63.5q82 0 146 -33l-14 -114q-57 30 -123 30q-63 0 -99.5 -32t-49.5 -99h193l-10 -86h-196q-1 -7 -1 -27q0 -12 2 -32h193l-10 -86h-170q13 -59 48 -86t97 -27q68 0 130 30l10 -110 q-68 -34 -150 -34q-231 0 -267 227h-85z" />
<glyph unicode="&#x2122;" horiz-adv-x="687" d="M29 641v70h247l-4 -70h-79v-247h-83v247h-81zM300 394q4 158 16 317h90l70 -186q30 87 66 186h90q13 -202 16 -317h-76q-4 132 -7 198q-13 -37 -62 -166h-57q-33 81 -62 164q-4 -64 -8 -196h-76z" />
<glyph unicode="&#xe000;" horiz-adv-x="485" d="M0 0v485h485v-485h-485z" />
</font>
</defs>
</svg>
