<?xml version="1.0" standalone="no"?>
<!DOCTYPE svg PUBLIC "-//W3C//DTD SVG 1.1//EN" "http://www.w3.org/Graphics/SVG/1.1/DTD/svg11.dtd" >
<svg xmlns="http://www.w3.org/2000/svg">
<metadata></metadata>
<defs>
<font id="lloyds_bank_jackbold" horiz-adv-x="573" >
<font-face units-per-em="1000" ascent="750" descent="-250" />
<missing-glyph horiz-adv-x="194" />
<glyph unicode="&#xfb01;" horiz-adv-x="602" d="M17 376v109h68v40q0 90 62 137.5t179 47.5q86 0 158 -13l-10 -118q-70 10 -127 10q-60 0 -88 -18.5t-28 -58.5v-27h316v-485h-146v376h-170v-376h-146v376h-68z" />
<glyph unicode="&#xfb02;" horiz-adv-x="600" d="M17 376v109h68v40q0 92 54 138.5t188 46.5q105 0 218 -23v-687h-146v584q-37 7 -78 7q-53 0 -71.5 -18t-18.5 -63v-25h96l-5 -109h-91v-376h-146v376h-68z" />
<glyph unicode="&#xfb03;" horiz-adv-x="931" d="M17 376v109h68v37q0 188 186 188q48 0 87 -11l-11 -116q-30 6 -51 6q-36 0 -50.5 -17.5t-14.5 -59.5v-27h183v40q0 90 62 137.5t179 47.5q86 0 158 -13l-10 -118q-70 10 -127 10q-60 0 -88 -18.5t-28 -58.5v-27h316v-485h-146v376h-170v-376h-146v376h-183v-376h-146v376 h-68z" />
<glyph unicode="&#xfb04;" horiz-adv-x="929" d="M17 376v109h68v37q0 188 186 188q48 0 87 -11l-11 -116q-30 6 -51 6q-36 0 -50.5 -17.5t-14.5 -59.5v-27h183v40q0 92 54 138.5t188 46.5q105 0 218 -23v-687h-146v584q-37 7 -78 7q-53 0 -71.5 -18t-18.5 -63v-25h96l-5 -109h-91v-376h-146v376h-183v-376h-146v376h-68z " />
<glyph horiz-adv-x="0" />
<glyph horiz-adv-x="0" />
<glyph horiz-adv-x="333" />
<glyph unicode="&#xd;" horiz-adv-x="194" />
<glyph unicode=" "  horiz-adv-x="194" />
<glyph unicode="&#x09;" horiz-adv-x="194" />
<glyph unicode="&#xa0;" horiz-adv-x="194" />
<glyph unicode="!" horiz-adv-x="281" d="M61 63v8q0 39 18 58.5t62 19.5t61.5 -19.5t17.5 -58.5v-8q0 -39 -17.5 -59t-61.5 -20t-62 20t-18 59zM67 422v252h147v-252l-12 -219h-123z" />
<glyph unicode="&#x22;" horiz-adv-x="478" d="M59 495v250h150l-26 -250h-124zM280 495v250h150l-26 -250h-124z" />
<glyph unicode="#" d="M26 129v133h76l12 96h-88v133h104l20 158h134l-19 -158h86l20 158h135l-20 -158h60v-133h-76l-12 -96h88v-133h-104l-15 -129h-135l16 129h-87l-15 -129h-135l15 129h-60zM237 262h86l12 96h-87z" />
<glyph unicode="$" d="M55 487q0 83 58.5 139t169.5 60v88h61v-91q73 -7 132 -30l-9 -148q-62 30 -123 36v-141l20 -8q78 -30 112.5 -74t34.5 -116q0 -102 -60.5 -154.5t-161.5 -58.5v-82h-62v82q-86 6 -158 31l7 150q71 -34 151 -41v149l-23 9q-149 58 -149 200zM221 491q0 -39 62 -67v118 q-27 -2 -44.5 -15.5t-17.5 -35.5zM289 132q56 10 56 56q0 22 -13 37t-43 29v-122z" />
<glyph unicode="%" horiz-adv-x="854" d="M54 496q0 194 144 194t144 -194q0 -198 -144 -198t-144 198zM166 496q0 -104 32 -104t32 104q0 100 -32 100q-17 0 -24.5 -21.5t-7.5 -78.5zM180 49l409 657l97 -58l-410 -662zM512 182q0 194 144 194t144 -194q0 -198 -144 -198t-144 198zM624 182q0 -104 32 -104 t32 104q0 100 -32 100q-17 0 -24.5 -21.5t-7.5 -78.5z" />
<glyph unicode="&#x26;" horiz-adv-x="660" d="M20 173v8q0 104 129 188q-69 90 -69 155q0 72 51.5 119t138.5 47q75 0 127 -43.5t52 -110.5q0 -52 -29 -95t-97 -85q72 -76 135 -133q22 61 24 138h116q-5 -131 -56 -220l10 -9q39 -35 96 -48l-41 -101q-73 10 -140 69q-34 -32 -91.5 -50t-121.5 -18q-105 0 -169.5 52.5 t-64.5 136.5zM160 185q0 -40 29.5 -65.5t75.5 -25.5q76 0 113 33q-72 63 -160 160q-58 -45 -58 -102zM210 525q0 -33 47 -93q62 47 62 92q0 23 -14.5 38.5t-39.5 15.5q-24 0 -39.5 -15t-15.5 -38z" />
<glyph unicode="'" horiz-adv-x="257" d="M59 495v250h150l-26 -250h-124z" />
<glyph unicode="(" horiz-adv-x="397" d="M61 288q0 243 212 434l85 -68q-146 -155 -146 -367t146 -367l-85 -67q-212 189 -212 435z" />
<glyph unicode=")" horiz-adv-x="397" d="M39 -80q146 155 146 367t-146 367l85 68q212 -191 212 -434q0 -123 -56 -234.5t-156 -200.5z" />
<glyph unicode="*" horiz-adv-x="378" d="M20 525l40 97l91 -54l-15 106h105l-16 -108l93 56l40 -96l-110 -27l81 -81l-84 -62l-56 100l-56 -99l-83 64l79 78z" />
<glyph unicode="+" d="M77 191v126h141v148h136v-148h142v-126h-142v-147h-136v147h-141z" />
<glyph unicode="," horiz-adv-x="262" d="M46 63v8q0 78 85 78q83 0 83 -84v-5q0 -41 -25 -112t-68 -146l-75 31q46 102 58 141q-58 21 -58 89z" />
<glyph unicode="-" horiz-adv-x="297" d="M34 180v126h229v-126h-229z" />
<glyph unicode="." horiz-adv-x="262" d="M52 63v8q0 39 17.5 58.5t61.5 19.5t62 -19.5t18 -58.5v-8q0 -39 -18 -59t-62 -20t-61.5 20t-17.5 59z" />
<glyph unicode="/" horiz-adv-x="426" d="M13 -16l248 710h153l-249 -710h-152z" />
<glyph unicode="0" d="M42 338q0 180 60.5 266t183.5 86t184 -86t61 -266q0 -181 -61 -267.5t-184 -86.5t-183.5 86.5t-60.5 267.5zM208 338q0 -123 18.5 -171.5t59.5 -48.5q42 0 60.5 48.5t18.5 171.5q0 121 -18.5 169t-60.5 48q-41 0 -59.5 -48t-18.5 -169z" />
<glyph unicode="1" d="M56 555l203 119h118v-552h130v-122h-432v122h144v381l-125 -73z" />
<glyph unicode="2" d="M58 118q108 113 196 213q40 45 60 81t20 74q0 34 -22.5 52.5t-60.5 18.5q-66 0 -156 -50l-17 132q97 51 202 51q97 0 158.5 -49.5t61.5 -140.5q0 -55 -24.5 -108.5t-56.5 -91t-88 -92.5l-87 -86h241v-122h-412z" />
<glyph unicode="3" d="M51 23l14 134q90 -37 163 -37q50 0 79 23.5t29 64.5q0 85 -117 85h-45v118h45q45 0 69 21.5t24 61.5q0 63 -88 63q-60 0 -137 -32l-21 127q100 38 192 38q96 0 157.5 -43.5t61.5 -134.5q0 -52 -24 -91t-69 -54v-3q57 -15 87.5 -56.5t30.5 -99.5q0 -108 -75.5 -166 t-186.5 -58t-189 39z" />
<glyph unicode="4" d="M29 154v108l231 412h201v-398h81v-122h-81v-154h-158v154h-274zM165 276h138v245z" />
<glyph unicode="5" d="M67 16l17 131q91 -31 158 -31q61 0 83 29q19 25 19 67q0 43 -25 63t-78 20q-54 0 -115 -18l-38 23v374h381l-10 -122h-224v-135q35 8 77 8q92 0 144.5 -53t52.5 -153q0 -114 -67 -174.5t-183 -60.5q-102 0 -192 32z" />
<glyph unicode="6" d="M42 296q0 175 77.5 284.5t231.5 109.5q67 0 116 -14l-19 -127q-33 10 -85 10q-119 0 -141 -132q43 19 98 19q103 0 158 -57.5t55 -157.5q0 -105 -65 -176t-174 -71q-252 0 -252 312zM206 261q0 -147 86 -147q75 0 75 105q0 95 -80 95q-46 0 -79 -19q-2 -24 -2 -34z" />
<glyph unicode="7" d="M59 552v122h452l-3 -126l-255 -548h-164l260 552h-290z" />
<glyph unicode="8" d="M45 190q0 54 29 102t76 69q-84 52 -84 148q0 80 61 130.5t160 50.5q96 0 157.5 -48t61.5 -131q0 -44 -25 -84t-67 -65q113 -56 113 -169q0 -96 -68.5 -152.5t-173.5 -56.5q-101 0 -170.5 52.5t-69.5 153.5zM211 195q0 -36 20 -58.5t55 -22.5q37 0 56 22.5t19 58.5 q0 61 -82 97q-68 -30 -68 -97zM226 506q0 -52 61 -83q27 12 43 35.5t16 50.5q0 28 -16 45t-43 17q-30 0 -45.5 -17.5t-15.5 -47.5z" />
<glyph unicode="9" d="M37 443q0 74 31.5 130.5t87 86.5t126.5 30q133 0 192 -81q57 -75 57 -225q0 -55 -7.5 -104.5t-23.5 -94.5t-41.5 -81.5t-59 -63.5t-79.5 -41.5t-101 -14.5q-69 0 -115 14l18 127q34 -10 86 -10q32 0 56.5 9t41.5 27t27.5 41.5t16.5 54.5q-43 -19 -96 -19 q-102 0 -159.5 59.5t-57.5 155.5zM203 454q0 -46 22 -71.5t60 -25.5q44 0 80 19q2 26 2 46q0 72 -19.5 105t-63.5 33q-36 0 -58.5 -28t-22.5 -78z" />
<glyph unicode=":" horiz-adv-x="262" d="M44 63v8q0 39 17.5 58.5t61.5 19.5t62 -19.5t18 -58.5v-8q0 -39 -18 -59t-62 -20t-61.5 20t-17.5 59zM44 415v8q0 39 17.5 58.5t61.5 19.5t62 -19.5t18 -58.5v-8q0 -39 -18 -59t-62 -20t-61.5 20t-17.5 59z" />
<glyph unicode=";" horiz-adv-x="262" d="M46 63v8q0 78 85 78q83 0 83 -84v-5q0 -41 -25 -112t-68 -146l-75 31q46 102 58 141q-58 21 -58 89zM51 415v8q0 39 17.5 58.5t61.5 19.5t62 -19.5t18 -58.5v-8q0 -39 -18 -59t-62 -20t-61.5 20t-17.5 59z" />
<glyph unicode="&#x3c;" d="M98 204v96l324 198l61 -109l-217 -134v-4l217 -132l-61 -107z" />
<glyph unicode="=" d="M77 78v126h419v-126h-419zM77 306v126h419v-126h-419z" />
<glyph unicode="&#x3e;" d="M96 119l217 132v4l-217 134l61 109l324 -198v-96l-324 -192z" />
<glyph unicode="?" horiz-adv-x="472" d="M26 652q100 38 196 38q92 0 153 -44.5t61 -134.5q0 -78 -48.5 -128t-135.5 -65l-9 -117h-110l-15 202l16 1q69 4 105 28.5t36 61.5q0 63 -85 63q-73 0 -154 -37zM113 63v8q0 39 17.5 58.5t61.5 19.5t62 -19.5t18 -58.5v-8q0 -39 -18 -59t-62 -20t-61.5 20t-17.5 59z" />
<glyph unicode="@" horiz-adv-x="814" d="M18 311v3q0 161 118.5 271t300.5 110q154 0 257.5 -87.5t103.5 -215.5q0 -118 -62.5 -181t-158.5 -63q-82 0 -117 48q-41 -44 -100 -44q-62 0 -99.5 41t-37.5 111q0 90 50.5 149t117.5 59q52 0 87 -33l7 27h103l-28 -171q-7 -42 -7 -62q0 -37 36 -37q35 0 61 37t26 107 q0 93 -68.5 150.5t-178.5 57.5q-123 0 -202.5 -79t-79.5 -196q0 -115 69.5 -173t191.5 -58q84 0 159 25l-28 -110q-58 -15 -151 -15q-167 0 -268.5 87.5t-101.5 241.5zM332 308q0 -76 51 -76q34 0 59 31q0 27 8 69l13 77q-20 20 -52 20q-33 0 -56 -33.5t-23 -87.5z" />
<glyph unicode="A" horiz-adv-x="622" d="M19 0q45 174 104.5 361.5t108.5 312.5h157q105 -274 214 -674h-161l-31 132q-50 -6 -96 -6q-65 0 -106 6l-30 -132h-160zM243 267q28 -3 70 -3q34 0 64 4q-27 107 -64 221h-5q-41 -123 -65 -222z" />
<glyph unicode="B" horiz-adv-x="606" d="M68 0v674h196q109 0 152 -12q108 -33 108 -155q0 -48 -25.5 -87t-70.5 -52v-2q68 -13 105 -55.5t37 -106.5q0 -136 -107 -181q-54 -23 -172 -23h-223zM226 135h54q27 0 39 0.5t32 4t29 11t16.5 22t7.5 36.5q0 41 -25 56.5t-74 15.5h-79v-146zM226 416h58q40 0 58.5 15 t18.5 48q0 32 -17 47q-14 13 -64 13h-54v-123z" />
<glyph unicode="C" horiz-adv-x="552" d="M44 324v11q0 169 82 262t238 93q84 0 146 -25l-12 -144q-52 21 -117 21q-74 0 -118 -42q-53 -52 -53 -166t47 -162q42 -44 120 -44q69 0 128 23l6 -140q-67 -27 -151 -27q-316 0 -316 340z" />
<glyph unicode="D" horiz-adv-x="650" d="M68 0v674h184q129 0 192 -25q163 -66 163 -310q0 -198 -109 -282q-76 -57 -257 -57h-173zM226 141h38q96 0 136.5 45t40.5 157q0 105 -34.5 147.5t-133.5 42.5h-47v-392z" />
<glyph unicode="E" horiz-adv-x="543" d="M68 0v674h431l-13 -141h-260v-124h232l-14 -140h-218v-128h269l-14 -141h-413z" />
<glyph unicode="F" horiz-adv-x="527" d="M68 0v674h431l-13 -141h-260v-124h232l-13 -140h-219v-269h-158z" />
<glyph unicode="G" horiz-adv-x="635" d="M44 326v9q0 174 87.5 264.5t242.5 90.5q100 0 190 -30l-10 -143q-85 29 -156 29q-92 0 -140 -54t-48 -158q0 -100 36.5 -155.5t123.5 -55.5q30 0 51 7v120h-82l-9 128h247v-357q-93 -37 -204 -37q-171 0 -250 87.5t-79 254.5z" />
<glyph unicode="H" horiz-adv-x="665" d="M68 0v674h158v-265h213v265h158v-674h-158v269h-213v-269h-158z" />
<glyph unicode="I" horiz-adv-x="300" d="M71 0v674h158v-674h-158z" />
<glyph unicode="J" horiz-adv-x="446" d="M24 6l7 129q46 -15 86 -15q57 0 81 37q18 26 18 99v418h159v-425q0 -139 -61 -200q-65 -65 -178 -65q-59 0 -112 22z" />
<glyph unicode="K" horiz-adv-x="605" d="M68 0v674h158v-287q89 115 174 287h161q-70 -159 -189 -322l208 -352h-182l-168 307h-4v-307h-158z" />
<glyph unicode="L" horiz-adv-x="518" d="M68 0v674h158v-533h266l-12 -141h-412z" />
<glyph unicode="M" horiz-adv-x="786" d="M52 0q4 250 34 674h129q85 -186 178 -400q89 205 180 400h127q30 -391 34 -674h-149q-3 135 -12 372q-25 -63 -71 -170t-59 -139h-100q-11 26 -57.5 135.5t-71.5 173.5q-9 -237 -12 -372h-150z" />
<glyph unicode="N" horiz-adv-x="686" d="M68 0v674h131l274 -383v383h145v-674h-125l-279 392v-392h-146z" />
<glyph unicode="O" horiz-adv-x="650" d="M44 336v3q0 351 281 351t281 -351v-3q0 -169 -66 -260.5t-215 -91.5q-281 0 -281 352zM210 337q0 -107 26.5 -158.5t88.5 -51.5t88.5 51.5t26.5 158.5t-26.5 158.5t-88.5 51.5t-88.5 -51.5t-26.5 -158.5z" />
<glyph unicode="P" horiz-adv-x="565" d="M68 0v674h175q106 0 163 -19q57 -21 90.5 -74.5t33.5 -130.5q0 -113 -68 -171t-192 -58h-44v-221h-158zM226 362h31q58 0 82.5 16t24.5 72q0 47 -25.5 65t-79.5 18h-33v-171z" />
<glyph unicode="Q" horiz-adv-x="650" d="M44 336v3q0 351 281 351t281 -351v-3q0 -213 -100 -296l100 -105l-125 -87q-38 46 -109 139q-22 -3 -47 -3q-281 0 -281 352zM210 337q0 -107 26.5 -158.5t88.5 -51.5t88.5 51.5t26.5 158.5t-26.5 158.5t-88.5 51.5t-88.5 -51.5t-26.5 -158.5z" />
<glyph unicode="R" horiz-adv-x="577" d="M68 0v674h175q106 0 163 -19q57 -21 90.5 -74.5t33.5 -130.5q0 -138 -101 -194l122 -256h-164l-97 222q-11 -1 -40 -1h-24v-221h-158zM226 359h31q57 0 82 17.5t25 73.5q0 48 -25 66.5t-80 18.5h-33v-176z" />
<glyph unicode="S" horiz-adv-x="534" d="M44 488q0 88 63.5 145t181.5 57q89 0 172 -34l-9 -150q-77 40 -155 40q-87 0 -87 -54q0 -25 21.5 -42.5t63.5 -34.5l56 -22q77 -31 112 -75.5t35 -116.5q0 -111 -70 -164t-181 -53q-93 0 -187 32l7 152q84 -41 165 -41q54 0 77 14t23 45q0 28 -18.5 44.5t-64.5 34.5 l-56 22q-149 59 -149 201z" />
<glyph unicode="T" horiz-adv-x="538" d="M23 533v141h494l-13 -141h-158v-533h-158v533h-165z" />
<glyph unicode="U" horiz-adv-x="646" d="M65 257v418h158v-410q0 -73 21 -105.5t79 -32.5q59 0 79.5 32.5t20.5 105.5v410h158v-418q0 -139 -58 -206t-200 -67t-200 67t-58 206z" />
<glyph unicode="V" horiz-adv-x="619" d="M17 674h169q58 -259 122 -467h3q64 208 122 467h169q-96 -356 -206 -674h-173q-110 318 -206 674z" />
<glyph unicode="W" horiz-adv-x="904" d="M17 674h167q63 -310 97 -472h2q19 92 52 283q19 123 26 189h185q6 -46 31 -189q40 -221 53 -283h2q33 155 92 472h163q-86 -387 -165 -674h-183q-58 297 -82 473h-2q-27 -178 -88 -473h-182q-70 262 -168 674z" />
<glyph unicode="X" horiz-adv-x="634" d="M17 0q86 179 199 340q-108 152 -188 334h177q43 -115 108 -205h3q67 93 109 205h178q-82 -190 -189 -335q115 -161 203 -339h-189q-50 118 -110 205h-3q-67 -107 -112 -205h-186z" />
<glyph unicode="Y" horiz-adv-x="576" d="M17 674h160q58 -182 109 -290h4q51 108 109 290h160q-74 -233 -192 -449v-225h-158v225q-118 216 -192 449z" />
<glyph unicode="Z" horiz-adv-x="559" d="M38 115l271 418h-260v141h465v-112l-270 -421h275l-13 -141h-449z" />
<glyph unicode="[" horiz-adv-x="359" d="M63 -87v777h233v-112h-95v-554h95v-111h-233z" />
<glyph unicode="\" horiz-adv-x="426" d="M12 694h153l248 -710h-152z" />
<glyph unicode="]" horiz-adv-x="359" d="M63 24h95v554h-95v112h233v-777h-233v111z" />
<glyph unicode="^" d="M38 331l185 333h126l186 -333l-111 -63l-137 241h-2l-136 -241z" />
<glyph unicode="_" horiz-adv-x="495" d="M5 -57h485v-91h-485v91z" />
<glyph unicode="`" horiz-adv-x="398" d="M51 654l66 106l230 -132l-45 -84z" />
<glyph unicode="a" horiz-adv-x="513" d="M28 133q0 90 69 137t197 47h16v17q0 29 -14.5 40t-53.5 11q-82 0 -164 -41l-19 114q97 43 201 43q154 0 186 -101q10 -30 10 -80v-225q0 -13 6.5 -18t23.5 -5v-78q-32 -10 -77 -10q-74 0 -89 58h-2q-45 -58 -137 -58q-66 0 -109.5 38.5t-43.5 110.5zM180 150 q0 -52 55 -52q41 0 75 31v90h-10q-120 0 -120 -69z" />
<glyph unicode="b" horiz-adv-x="556" d="M53 0v690h147v-239q53 50 132 50q97 0 143 -70.5t46 -182.5v-6q0 -116 -54.5 -187t-144.5 -71q-87 0 -139 65h-2l-5 -49h-123zM200 157q14 -18 38 -30.5t42 -12.5q89 0 89 128q0 71 -26 104q-20 25 -55 25q-48 0 -88 -38v-176z" />
<glyph unicode="c" horiz-adv-x="459" d="M35 236v6q0 135 71.5 197t180.5 62q80 0 137 -26l-8 -126q-49 26 -108 26q-121 0 -121 -131q0 -71 30.5 -103.5t91.5 -32.5q53 0 112 20l5 -121q-55 -23 -142 -23q-142 0 -201 81q-48 67 -48 171z" />
<glyph unicode="d" horiz-adv-x="553" d="M35 235v8q0 113 55 185.5t159 72.5q68 0 104 -38v227h147v-690h-124l-8 43h-2q-20 -27 -56.5 -43t-75.5 -16q-90 0 -144.5 68t-54.5 183zM187 242q0 -32 6 -58t25.5 -48t52.5 -22q50 0 82 38v183q-26 36 -73 36q-93 0 -93 -129z" />
<glyph unicode="e" horiz-adv-x="516" d="M35 242v3q0 124 60.5 190t174.5 66q106 0 158 -62.5t52 -176.5q0 -42 -3 -80h-291q10 -77 112 -77q90 0 155 22l5 -115q-70 -28 -164 -28q-129 0 -194 60.5t-65 197.5zM185 285h149v11q0 93 -71 93q-78 0 -78 -97v-7z" />
<glyph unicode="f" horiz-adv-x="344" d="M17 376v109h68v37q0 188 186 188q48 0 87 -11l-11 -116q-30 6 -51 6q-36 0 -50.5 -17.5t-14.5 -59.5v-27h96l-5 -109h-91v-376h-146v376h-68z" />
<glyph unicode="g" horiz-adv-x="540" d="M18 -87q0 31 21.5 59.5t56.5 44.5q-49 25 -49 73q0 53 65 81q-35 17 -60 58t-25 90v6q0 83 61 129.5t160 46.5q60 0 108 -19q29 28 73 48t80 20h12l-14 -106h-19q-34 0 -64 -6q22 -20 35 -51.5t13 -60.5v-6q0 -90 -62 -132t-162 -42q-39 0 -64 5q-13 -14 -13 -32 q0 -30 43 -30h103q75 0 125 -34t50 -103q0 -79 -69 -126t-177 -47q-113 0 -170.5 35t-57.5 99zM154 -60q0 -60 97 -60q47 0 73.5 16.5t26.5 43.5q0 26 -16.5 36t-53.5 10h-54q-32 0 -56 4q-17 -23 -17 -50zM182 322q0 -43 16.5 -60.5t49.5 -17.5q34 0 51 17.5t17 60.5 q0 81 -68 81q-66 0 -66 -81z" />
<glyph unicode="h" horiz-adv-x="554" d="M53 0v690h147v-241q57 52 142 52q77 0 118 -43q44 -45 44 -146v-312h-147v289q0 42 -13 59q-16 21 -50 21q-55 0 -94 -35v-334h-147z" />
<glyph unicode="i" horiz-adv-x="257" d="M48 615v8q0 80 81 80t81 -80v-8q0 -81 -81 -81t-81 81zM55 0v485h147v-485h-147z" />
<glyph unicode="j" horiz-adv-x="257" d="M-50 -207l13 113q18 -3 38 -3q29 0 41.5 19.5t12.5 62.5v500h147v-460q0 -55 -6.5 -93t-24 -74t-55 -54.5t-94.5 -18.5q-36 0 -72 8zM48 615v8q0 80 81 80t81 -80v-8q0 -81 -81 -81t-81 81z" />
<glyph unicode="k" horiz-adv-x="501" d="M53 0v690h147v-380q86 77 125 175h150q-51 -129 -138 -217l155 -268h-162l-103 177q-9 -6 -27 -16v-161h-147z" />
<glyph unicode="l" horiz-adv-x="257" d="M55 0v690h147v-690h-147z" />
<glyph unicode="m" horiz-adv-x="831" d="M53 0v485h133l5 -44h2q25 27 62.5 43.5t77.5 16.5q90 0 130 -64q69 64 160 64q73 0 114 -43q43 -44 43 -139v-319h-146v287q0 43 -14 60q-15 20 -47 20q-50 0 -83 -44v-323h-146v287q0 43 -14 60q-15 20 -47 20q-50 0 -83 -44v-323h-147z" />
<glyph unicode="n" horiz-adv-x="554" d="M53 0v485h131l5 -47h2q60 63 151 63q77 0 118 -43q44 -45 44 -146v-312h-147v289q0 42 -13 59q-16 21 -50 21q-54 0 -94 -43v-326h-147z" />
<glyph unicode="o" horiz-adv-x="557" d="M35 239v7q0 123 62 189t182 66t181.5 -66t61.5 -189v-7q0 -123 -61.5 -189t-181.5 -66t-182 66t-62 189zM187 242q0 -72 22.5 -105t69.5 -33q46 0 68.5 33t22.5 105q0 73 -22.5 106t-68.5 33q-47 0 -69.5 -33t-22.5 -106z" />
<glyph unicode="p" horiz-adv-x="558" d="M53 -199v684h130l6 -49h2q22 27 59 46t78 19q93 0 144 -66t51 -181v-6q0 -112 -53 -188t-157 -76q-31 0 -63.5 14.5t-49.5 31.5v-229h-147zM200 148q34 -32 79 -32q92 0 92 129q0 124 -82 124q-25 0 -49.5 -13.5t-39.5 -33.5v-174z" />
<glyph unicode="q" horiz-adv-x="555" d="M35 239v5q0 115 54 186t144 71q82 0 134 -59h2l4 43h129v-684h-147v229q-17 -19 -49.5 -32.5t-66.5 -13.5q-105 0 -154.5 71.5t-49.5 183.5zM187 237q0 -124 81 -124q51 0 87 38v173q-12 19 -34.5 32t-45.5 13q-88 0 -88 -132z" />
<glyph unicode="r" horiz-adv-x="364" d="M53 0v485h130l9 -67h2q50 77 150 77l-4 -135q-91 0 -140 -49v-311h-147z" />
<glyph unicode="s" horiz-adv-x="427" d="M26 348q0 70 53 111.5t144 41.5q76 0 149 -27l-14 -121q-50 30 -120 30q-63 0 -63 -33q0 -22 56 -39l43 -12q74 -20 103 -56t29 -98q0 -78 -55 -119.5t-156 -41.5q-89 0 -160 27l13 121q62 -31 135 -31q75 0 75 34q0 17 -13 26t-55 21l-40 12q-124 36 -124 154z" />
<glyph unicode="t" horiz-adv-x="369" d="M15 376v109h68v124l146 21v-145h106l-5 -109h-101v-193q0 -28 4.5 -45.5t14 -24.5t18 -9t22.5 -2q19 0 47 8l5 -114q-34 -12 -85 -12q-98 0 -135 44t-37 137v211h-68z" />
<glyph unicode="u" horiz-adv-x="530" d="M48 241v244h146v-262q0 -59 5 -78q11 -41 66 -41t66 41q5 19 5 78v262h146v-244q0 -81 -3 -102q-10 -83 -61.5 -119t-152.5 -36t-152.5 36t-61.5 119q-3 21 -3 102z" />
<glyph unicode="v" horiz-adv-x="483" d="M6 485h155q12 -100 82 -320h2q64 227 77 320h154q-22 -89 -73 -242t-87 -243h-150q-37 89 -88.5 242t-71.5 243z" />
<glyph unicode="w" horiz-adv-x="752" d="M14 485h154q31 -163 70 -315h2q58 241 72 315h128q23 -122 72 -315h2q48 187 70 315h154q-22 -87 -70 -244.5t-78 -240.5h-141q-43 146 -72 281h-2q-37 -167 -71 -281h-142q-30 83 -78 240.5t-70 244.5z" />
<glyph unicode="x" horiz-adv-x="511" d="M16 0q79 146 154 240q-98 125 -153 245h158q24 -71 72 -136h4q38 53 71 136h153q-59 -127 -144 -243q72 -85 165 -242h-165q-39 75 -78 132h-4q-28 -43 -69 -132h-164z" />
<glyph unicode="y" horiz-adv-x="506" d="M14 485h157q34 -188 87 -337h2q39 111 80 337h152q-57 -265 -158 -494q-50 -114 -100.5 -158t-124.5 -44q-42 0 -86 11l5 112q32 -8 56 -8q74 0 107 89q-106 193 -177 492z" />
<glyph unicode="z" horiz-adv-x="430" d="M20 79q34 56 100 155t93 142h-184v109h364v-78q-29 -45 -100.5 -143.5t-105.5 -154.5h211l-12 -109h-349z" />
<glyph unicode="{" horiz-adv-x="389" d="M48 234v95q66 4 67 64l3 144q1 70 42 111.5t115 41.5h72v-112h-49q-24 0 -33.5 -11.5t-10.5 -35.5l-2 -116q-2 -105 -84 -133v-2q82 -27 84 -133l2 -114q1 -24 10.5 -36t33.5 -12h49v-111h-72q-74 0 -115 41.5t-42 110.5l-3 144q-1 60 -67 64z" />
<glyph unicode="|" horiz-adv-x="264" d="M63 -16v710h138v-710h-138z" />
<glyph unicode="}" horiz-adv-x="389" d="M42 -17h49q24 0 33.5 11.5t10.5 35.5l2 117q2 106 84 133v2q-82 28 -84 133l-2 118q-1 25 -10.5 36.5t-33.5 11.5h-49v109h73q73 0 114 -41.5t43 -111.5l3 -144q1 -60 67 -64v-95q-66 -4 -67 -64l-3 -144q-2 -69 -43 -110.5t-114 -41.5h-73v109z" />
<glyph unicode="~" d="M21 277q58 136 174 136q44 0 95 -33l30 -20q32 -21 52 -21q46 0 84 74l94 -75q-26 -59 -74.5 -96.5t-93.5 -37.5q-48 0 -84 23l-29 19q-41 28 -64 28q-46 0 -86 -71z" />
<glyph unicode="&#xa1;" horiz-adv-x="281" d="M61 414v8q0 39 18 59t62 20t61.5 -20t17.5 -59v-8q0 -39 -17.5 -58.5t-61.5 -19.5t-62 19.5t-18 58.5zM67 63l12 219h123l12 -219v-252h-147v252z" />
<glyph unicode="&#xa2;" d="M78 326v6q0 127 63.5 189t164.5 69v100h62v-101q57 -5 99 -24l-8 -126q-44 22 -91 25v-266q50 4 96 20l5 -121q-41 -17 -101 -22v-91h-62v90q-125 6 -180 81q-48 67 -48 171zM230 334q0 -110 76 -131v256q-76 -23 -76 -125z" />
<glyph unicode="&#xa3;" d="M57 279v121h70v55q0 114 55 174.5t164 60.5q77 0 153 -27l-19 -137q-48 20 -103 20q-92 0 -92 -103v-43h139l-14 -121h-125v-40q0 -83 -44 -111v-2h249l-15 -126h-409l-5 120q36 11 51 36t15 67v56h-70z" />
<glyph unicode="&#xa4;" horiz-adv-x="558" d="M24 102l83 84q-27 46 -27 100q0 51 25 96l-81 83l76 71l78 -80q48 28 100 28q53 0 102 -28l78 80l76 -71l-82 -84q24 -43 24 -96q0 -56 -25 -99l83 -84l-76 -72l-81 83q-46 -27 -99 -27q-52 0 -98 27l-80 -83zM191 286q0 -40 25.5 -64.5t63.5 -24.5q35 0 61 25t26 63 q0 39 -25.5 63.5t-63.5 24.5q-36 0 -61.5 -24t-25.5 -63z" />
<glyph unicode="&#xa5;" d="M20 674h160q56 -189 104 -300h4q46 102 104 300h160q-59 -184 -135 -347h75l-10 -102h-117v-44h117v-100h-117v-81h-158v81h-117v100h117v44h-117l-10 102h75q-73 153 -135 347z" />
<glyph unicode="&#xa6;" horiz-adv-x="264" d="M63 -16v295h138v-295h-138zM63 395v299h138v-299h-138z" />
<glyph unicode="&#xa7;" horiz-adv-x="458" d="M39 339q0 69 63 109q-53 39 -53 109q0 59 51 98t137 39q71 0 133 -25l-5 -108q-60 26 -115 26q-67 0 -67 -34q0 -15 14.5 -25.5t58.5 -27.5l59 -23q104 -40 104 -129q0 -69 -63 -115q47 -35 47 -96q0 -74 -51 -113.5t-146 -39.5q-86 0 -156 30l4 111q85 -32 145 -32 q79 0 79 37q0 15 -14 25.5t-55 26.5l-64 25q-106 41 -106 132zM157 364q0 -42 55 -63l65 -25q23 18 23 49q0 22 -11.5 36t-43.5 26l-62 24q-26 -19 -26 -47z" />
<glyph unicode="&#xa8;" horiz-adv-x="398" d="M29 643v8q0 36 17 54t56 18q38 0 54 -18t16 -54v-8q0 -37 -16 -54.5t-54 -17.5q-39 0 -56 18t-17 54zM227 643v8q0 36 16.5 54t54.5 18q39 0 55.5 -18t16.5 -54v-8q0 -37 -16.5 -54.5t-55.5 -17.5t-55 17.5t-16 54.5z" />
<glyph unicode="&#xa9;" horiz-adv-x="833" d="M44 338q0 161 105.5 266.5t266.5 105.5t266.5 -105.5t105.5 -266.5t-105.5 -267t-266.5 -106t-266.5 106t-105.5 267zM171 338q0 -107 68.5 -181.5t176.5 -74.5t176.5 74.5t68.5 181.5q0 110 -68 182.5t-177 72.5t-177 -72.5t-68 -182.5zM259 329q0 89 44 139t130 50 q45 0 77 -13l-6 -91q-27 12 -62 12q-36 0 -54 -21t-18 -71q0 -48 17.5 -69.5t54.5 -21.5t67 13l3 -91q-43 -13 -79 -13q-174 0 -174 177z" />
<glyph unicode="&#xaa;" horiz-adv-x="349" d="M14 403q0 60 47 90.5t134 30.5h4v6q0 28 -39 28q-51 0 -107 -27l-13 86q65 28 134 28q103 0 127 -70q6 -20 6 -52v-136q0 -17 21 -17v-64q-22 -8 -58 -8q-49 0 -60 33h-3q-28 -33 -84 -33q-46 0 -77.5 26.5t-31.5 78.5zM125 409q0 -30 34 -30q19 0 40 19v56 q-74 0 -74 -45z" />
<glyph unicode="&#xab;" horiz-adv-x="615" d="M29 243l177 251l106 -65l-131 -186l131 -185l-106 -66zM299 243l176 251l106 -65l-131 -186l131 -185l-106 -66z" />
<glyph unicode="&#xac;" d="M77 191v126h419v-251h-129v125h-290z" />
<glyph unicode="&#xad;" horiz-adv-x="297" d="M34 180v126h229v-126h-229z" />
<glyph unicode="&#xae;" horiz-adv-x="833" d="M44 338q0 161 105.5 266.5t266.5 105.5t266.5 -105.5t105.5 -266.5t-105.5 -267t-266.5 -106t-266.5 106t-105.5 267zM171 338q0 -107 68.5 -181.5t176.5 -74.5t176.5 74.5t68.5 181.5q0 110 -68 182.5t-177 72.5t-177 -72.5t-68 -182.5zM295 158v357h90q92 0 131 -29 q40 -29 40 -85q0 -83 -61 -111l69 -132h-97l-55 118q-5 -1 -15 -1h-8v-117h-94zM389 357h23q25 0 35 7t10 31q0 22 -10 30t-35 8h-23v-76z" />
<glyph unicode="&#xaf;" horiz-adv-x="398" d="M38 594v90h322v-90h-322z" />
<glyph unicode="&#xb0;" horiz-adv-x="359" d="M24 572q0 65 43.5 110t112.5 45q68 0 111.5 -45t43.5 -110q0 -64 -43.5 -109t-111.5 -45q-69 0 -112.5 45t-43.5 109zM129 572q0 -25 13.5 -40.5t37.5 -15.5t37 15.5t13 40.5q0 26 -13.5 42t-36.5 16t-37 -16.5t-14 -41.5z" />
<glyph unicode="&#xb1;" d="M77 0v122h419v-122h-419zM77 318v126h141v138h136v-138h142v-126h-142v-138h-136v138h-141z" />
<glyph unicode="&#xb2;" horiz-adv-x="350" d="M42 480l100 103q51 52 51 80q0 27 -40 27q-46 0 -99 -29l-8 93q61 32 124 32t99 -28.5t36 -84.5q0 -38 -21 -71t-67 -75l-35 -32h126v-91h-259z" />
<glyph unicode="&#xb3;" horiz-adv-x="350" d="M40 413l7 89q46 -16 91 -16q61 0 61 34q0 33 -54 33h-41v78h34q59 0 59 35q0 29 -49 29q-40 0 -80 -16l-8 86q53 21 109 21q65 0 102 -26t37 -77q0 -57 -53 -83q56 -23 56 -87q0 -56 -42.5 -87.5t-114.5 -31.5q-62 0 -114 19z" />
<glyph unicode="&#xb4;" horiz-adv-x="398" d="M51 628l230 132l66 -106l-251 -110z" />
<glyph unicode="&#xb6;" horiz-adv-x="550" d="M13 511q0 79 55 131t137 52h277v-788h-114v695h-76v-695h-114l-1 422q-75 15 -119.5 62.5t-44.5 120.5z" />
<glyph unicode="&#xb7;" horiz-adv-x="262" d="M52 260v8q0 39 17.5 58.5t61.5 19.5t62 -19.5t18 -58.5v-8q0 -39 -18 -59t-62 -20t-61.5 20t-17.5 59z" />
<glyph unicode="&#xb8;" horiz-adv-x="398" d="M76 -246l20 67q44 -18 82 -18q52 0 52 34t-51 34q-27 0 -60 -7l-10 11l28 120l79 -9l-9 -48q55 1 84.5 -23t29.5 -71q0 -56 -35.5 -86.5t-99.5 -30.5q-56 0 -110 27z" />
<glyph unicode="&#xb9;" horiz-adv-x="350" d="M35 707l128 69h84v-284h65v-88h-255v88h82v164l-74 -39z" />
<glyph unicode="&#xba;" horiz-adv-x="377" d="M24 469v5q0 83 41.5 127t122.5 44t122.5 -44t41.5 -127v-5q0 -82 -41.5 -126.5t-122.5 -44.5t-122.5 44.5t-41.5 126.5zM136 471q0 -44 12 -63.5t40 -19.5t40.5 19.5t12.5 63.5q0 45 -12.5 64.5t-40.5 19.5t-40 -19.5t-12 -64.5z" />
<glyph unicode="&#xbb;" horiz-adv-x="615" d="M34 58l131 185l-131 186l106 65l176 -251l-176 -251zM304 58l131 185l-131 186l105 65l177 -251l-177 -251z" />
<glyph unicode="&#xbc;" horiz-adv-x="854" d="M36 611l128 69h84v-284h65v-88h-255v88h82v164l-74 -39zM194 49l409 657l97 -58l-410 -662zM497 72v71l143 223h130v-209h45v-85h-45v-78h-107v78h-166zM591 157h72v111z" />
<glyph unicode="&#xbd;" horiz-adv-x="854" d="M36 611l128 69h84v-284h65v-88h-255v88h82v164l-74 -39zM194 49l409 657l97 -58l-410 -662zM552 70l100 103q51 52 51 80q0 27 -40 27q-46 0 -99 -29l-8 93q61 32 124 32t99 -28.5t36 -84.5q0 -38 -21 -71t-67 -75l-35 -32h126v-91h-259z" />
<glyph unicode="&#xbe;" horiz-adv-x="854" d="M61 317l7 89q46 -16 91 -16q61 0 61 34q0 33 -54 33h-41v78h34q59 0 59 35q0 29 -49 29q-40 0 -80 -16l-8 86q53 21 109 21q65 0 102 -26t37 -77q0 -57 -53 -83q56 -23 56 -87q0 -56 -42.5 -87.5t-114.5 -31.5q-62 0 -114 19zM194 49l409 657l97 -58l-410 -662zM497 72 v71l143 223h130v-209h45v-85h-45v-78h-107v78h-166zM591 157h72v111z" />
<glyph unicode="&#xbf;" horiz-adv-x="472" d="M36 -26q0 78 48 128t135 65l10 117h110l14 -202l-15 -1q-69 -4 -105 -28.5t-36 -61.5q0 -63 84 -63q74 0 155 37l9 -132q-98 -38 -196 -38q-91 0 -152 44.5t-61 134.5zM200 414v8q0 39 17.5 59t62.5 20q44 0 61.5 -20t17.5 -59v-8q0 -39 -17.5 -58.5t-61.5 -19.5 q-45 0 -62.5 19.5t-17.5 58.5z" />
<glyph unicode="&#xc0;" horiz-adv-x="622" d="M19 0q45 174 104.5 361.5t108.5 312.5h157q105 -274 214 -674h-161l-31 132q-50 -6 -96 -6q-65 0 -106 6l-30 -132h-160zM150 833l66 107l230 -133l-45 -83zM243 267q28 -3 70 -3q34 0 64 4q-27 107 -64 221h-5q-41 -123 -65 -222z" />
<glyph unicode="&#xc1;" horiz-adv-x="622" d="M19 0q45 174 104.5 361.5t108.5 312.5h157q105 -274 214 -674h-161l-31 132q-50 -6 -96 -6q-65 0 -106 6l-30 -132h-160zM180 807l230 133l66 -107l-251 -109zM243 267q28 -3 70 -3q34 0 64 4q-27 107 -64 221h-5q-41 -123 -65 -222z" />
<glyph unicode="&#xc2;" horiz-adv-x="622" d="M19 0q45 174 104.5 361.5t108.5 312.5h157q105 -274 214 -674h-161l-31 132q-50 -6 -96 -6q-65 0 -106 6l-30 -132h-160zM133 787l134 146h88l134 -146l-61 -59l-113 103h-8l-113 -103zM243 267q28 -3 70 -3q34 0 64 4q-27 107 -64 221h-5q-41 -123 -65 -222z" />
<glyph unicode="&#xc3;" horiz-adv-x="622" d="M19 0q45 174 104.5 361.5t108.5 312.5h157q105 -274 214 -674h-161l-31 132q-50 -6 -96 -6q-65 0 -106 6l-30 -132h-160zM122 806q52 90 126 90q33 0 71 -25t60 -25q39 0 60 47l62 -68q-43 -80 -121 -80q-37 0 -75 23t-55 23q-37 0 -70 -51zM243 267q28 -3 70 -3 q34 0 64 4q-27 107 -64 221h-5q-41 -123 -65 -222z" />
<glyph unicode="&#xc4;" horiz-adv-x="622" d="M19 0q45 174 104.5 361.5t108.5 312.5h157q105 -274 214 -674h-161l-31 132q-50 -6 -96 -6q-65 0 -106 6l-30 -132h-160zM140 823v7q0 36 17 54t56 18q38 0 54 -17.5t16 -54.5v-7q0 -37 -15.5 -54.5t-54.5 -17.5t-56 17.5t-17 54.5zM243 267q28 -3 70 -3q34 0 64 4 q-27 107 -64 221h-5q-41 -123 -65 -222zM338 823v7q0 37 16 54.5t55 17.5t55.5 -17.5t16.5 -54.5v-7q0 -37 -16.5 -54.5t-55.5 -17.5t-55 17.5t-16 54.5z" />
<glyph unicode="&#xc5;" horiz-adv-x="622" d="M19 0q45 174 104.5 361.5t108.5 312.5h157q105 -274 214 -674h-161l-31 132q-50 -6 -96 -6q-65 0 -106 6l-30 -132h-160zM196 834q0 47 34.5 82t81.5 35q46 0 80 -35t34 -82t-34.5 -81.5t-81.5 -34.5q-46 0 -80 34.5t-34 81.5zM243 267q28 -3 70 -3q34 0 64 4 q-27 107 -64 221h-5q-41 -123 -65 -222zM277 834q0 -13 10 -23.5t23 -10.5q14 0 24 10t10 24t-9.5 24t-23.5 10t-24 -10t-10 -24z" />
<glyph unicode="&#xc6;" horiz-adv-x="911" d="M21 0q52 124 165 351.5t167 322.5h514l-13 -141h-259v-124h231l-14 -140h-217v-128h268l-14 -141h-412v127q-39 -3 -82 -3q-45 0 -107 5q-3 -7 -24 -54t-32 -75h-171zM311 269q27 -3 66 -3q36 0 60 3v269h-2q-25 -47 -73 -154t-51 -115z" />
<glyph unicode="&#xc7;" horiz-adv-x="552" d="M44 318v11q0 169 82.5 265t237.5 96q84 0 146 -25l-12 -144q-52 21 -117 21q-74 0 -118 -42q-53 -52 -53 -166t47 -162q42 -44 120 -44q69 0 128 23l6 -140q-67 -27 -151 -27h-5l-9 -46q55 1 85 -23t30 -71q0 -56 -36 -86.5t-99 -30.5q-57 0 -111 27l21 67q44 -18 81 -18 q53 0 53 34t-52 34q-26 0 -59 -7l-11 11l27 116q-231 40 -231 327z" />
<glyph unicode="&#xc8;" horiz-adv-x="543" d="M68 0v674h431l-13 -141h-260v-124h232l-14 -140h-218v-128h269l-14 -141h-413zM133 833l66 107l230 -133l-45 -83z" />
<glyph unicode="&#xc9;" horiz-adv-x="543" d="M68 0v674h431l-13 -141h-260v-124h232l-14 -140h-218v-128h269l-14 -141h-413zM165 807l230 133l66 -107l-251 -109z" />
<glyph unicode="&#xca;" horiz-adv-x="543" d="M68 0v674h431l-13 -141h-260v-124h232l-14 -140h-218v-128h269l-14 -141h-413zM108 787l134 146h88l134 -146l-61 -59l-113 103h-8l-113 -103z" />
<glyph unicode="&#xcb;" horiz-adv-x="543" d="M68 0v674h431l-13 -141h-260v-124h232l-14 -140h-218v-128h269l-14 -141h-413zM122 823v7q0 36 17 54t56 18q38 0 54 -17.5t16 -54.5v-7q0 -37 -15.5 -54.5t-54.5 -17.5t-56 17.5t-17 54.5zM320 823v7q0 37 16 54.5t55 17.5t55.5 -17.5t16.5 -54.5v-7q0 -37 -16.5 -54.5 t-55.5 -17.5t-55 17.5t-16 54.5z" />
<glyph unicode="&#xcc;" horiz-adv-x="300" d="M-17 833l66 107l230 -133l-45 -83zM71 0v674h158v-674h-158z" />
<glyph unicode="&#xcd;" horiz-adv-x="300" d="M15 807l230 133l66 -107l-251 -109zM71 0v674h158v-674h-158z" />
<glyph unicode="&#xce;" horiz-adv-x="300" d="M-28 787l134 146h88l134 -146l-61 -59l-113 103h-8l-113 -103zM71 0v674h158v-674h-158z" />
<glyph unicode="&#xcf;" horiz-adv-x="300" d="M-20 823v7q0 36 17 54t56 18q38 0 54 -17.5t16 -54.5v-7q0 -37 -15.5 -54.5t-54.5 -17.5t-56 17.5t-17 54.5zM71 0v674h158v-674h-158zM178 823v7q0 37 16 54.5t55 17.5t55.5 -17.5t16.5 -54.5v-7q0 -37 -16.5 -54.5t-55.5 -17.5t-55 17.5t-16 54.5z" />
<glyph unicode="&#xd0;" horiz-adv-x="650" d="M-1 275v125h69v274h184q129 0 192 -25q163 -66 163 -310q0 -198 -109 -282q-76 -57 -257 -57h-173v275h-69zM226 141h38q96 0 136.5 45t40.5 157q0 105 -34.5 147.5t-133.5 42.5h-47v-133h90v-125h-90v-134z" />
<glyph unicode="&#xd1;" horiz-adv-x="686" d="M68 0v674h131l274 -383v383h145v-674h-125l-279 392v-392h-146zM155 806q52 90 126 90q33 0 71 -25t60 -25q39 0 60 47l62 -68q-43 -80 -121 -80q-37 0 -75 23t-55 23q-37 0 -70 -51z" />
<glyph unicode="&#xd2;" horiz-adv-x="650" d="M44 336v3q0 351 281 351t281 -351v-3q0 -169 -66 -260.5t-215 -91.5q-281 0 -281 352zM167 833l66 107l230 -133l-45 -83zM210 337q0 -107 26.5 -158.5t88.5 -51.5t88.5 51.5t26.5 158.5t-26.5 158.5t-88.5 51.5t-88.5 -51.5t-26.5 -158.5z" />
<glyph unicode="&#xd3;" horiz-adv-x="650" d="M44 336v3q0 351 281 351t281 -351v-3q0 -169 -66 -260.5t-215 -91.5q-281 0 -281 352zM188 807l230 133l66 -107l-251 -109zM210 337q0 -107 26.5 -158.5t88.5 -51.5t88.5 51.5t26.5 158.5t-26.5 158.5t-88.5 51.5t-88.5 -51.5t-26.5 -158.5z" />
<glyph unicode="&#xd4;" horiz-adv-x="650" d="M44 336v3q0 351 281 351t281 -351v-3q0 -169 -66 -260.5t-215 -91.5q-281 0 -281 352zM147 787l134 146h88l134 -146l-61 -59l-113 103h-8l-113 -103zM210 337q0 -107 26.5 -158.5t88.5 -51.5t88.5 51.5t26.5 158.5t-26.5 158.5t-88.5 51.5t-88.5 -51.5t-26.5 -158.5z " />
<glyph unicode="&#xd5;" horiz-adv-x="650" d="M44 336v3q0 351 281 351t281 -351v-3q0 -169 -66 -260.5t-215 -91.5q-281 0 -281 352zM140 806q52 90 126 90q33 0 71 -25t60 -25q39 0 60 47l62 -68q-43 -80 -121 -80q-37 0 -75 23t-55 23q-37 0 -70 -51zM210 337q0 -107 26.5 -158.5t88.5 -51.5t88.5 51.5t26.5 158.5 t-26.5 158.5t-88.5 51.5t-88.5 -51.5t-26.5 -158.5z" />
<glyph unicode="&#xd6;" horiz-adv-x="650" d="M44 336v3q0 351 281 351t281 -351v-3q0 -169 -66 -260.5t-215 -91.5q-281 0 -281 352zM154 823v7q0 36 17 54t56 18q38 0 54 -17.5t16 -54.5v-7q0 -37 -15.5 -54.5t-54.5 -17.5t-56 17.5t-17 54.5zM210 337q0 -107 26.5 -158.5t88.5 -51.5t88.5 51.5t26.5 158.5 t-26.5 158.5t-88.5 51.5t-88.5 -51.5t-26.5 -158.5zM352 823v7q0 37 16 54.5t55 17.5t55.5 -17.5t16.5 -54.5v-7q0 -37 -16.5 -54.5t-55.5 -17.5t-55 17.5t-16 54.5z" />
<glyph unicode="&#xd7;" d="M88 368l87 86l116 -118l113 112l78 -78l-114 -111l116 -118l-86 -87l-117 119l-112 -113l-79 79l115 110z" />
<glyph unicode="&#xd8;" horiz-adv-x="650" d="M44 336v3q0 351 281 351q79 0 145 -34l49 87l67 -33l-57 -100q77 -87 77 -271v-3q0 -169 -66 -260.5t-215 -91.5q-75 0 -139 31l-50 -88l-63 37l53 94q-82 83 -82 278zM210 337q0 -72 10 -116l172 301q-27 25 -67 25q-62 0 -88.5 -51.5t-26.5 -158.5zM262 147 q28 -20 63 -20q62 0 89 51.5t27 158.5q0 61 -9 104z" />
<glyph unicode="&#xd9;" horiz-adv-x="646" d="M65 257v418h158v-410q0 -73 21 -105.5t79 -32.5q59 0 79.5 32.5t20.5 105.5v410h158v-418q0 -139 -58 -206t-200 -67t-200 67t-58 206zM166 833l66 107l230 -133l-45 -83z" />
<glyph unicode="&#xda;" horiz-adv-x="646" d="M65 257v418h158v-410q0 -73 21 -105.5t79 -32.5q59 0 79.5 32.5t20.5 105.5v410h158v-418q0 -139 -58 -206t-200 -67t-200 67t-58 206zM189 807l230 133l66 -107l-251 -109z" />
<glyph unicode="&#xdb;" horiz-adv-x="646" d="M65 257v418h158v-410q0 -73 21 -105.5t79 -32.5q59 0 79.5 32.5t20.5 105.5v410h158v-418q0 -139 -58 -206t-200 -67t-200 67t-58 206zM146 787l134 146h88l134 -146l-61 -59l-113 103h-8l-113 -103z" />
<glyph unicode="&#xdc;" horiz-adv-x="646" d="M65 257v418h158v-410q0 -73 21 -105.5t79 -32.5q59 0 79.5 32.5t20.5 105.5v410h158v-418q0 -139 -58 -206t-200 -67t-200 67t-58 206zM154 823v7q0 36 17 54t56 18q38 0 54 -17.5t16 -54.5v-7q0 -37 -15.5 -54.5t-54.5 -17.5t-56 17.5t-17 54.5zM352 823v7q0 37 16 54.5 t55 17.5t55.5 -17.5t16.5 -54.5v-7q0 -37 -16.5 -54.5t-55.5 -17.5t-55 17.5t-16 54.5z" />
<glyph unicode="&#xdd;" horiz-adv-x="576" d="M17 674h160q58 -182 109 -290h4q51 108 109 290h160q-74 -233 -192 -449v-225h-158v225q-118 216 -192 449zM170 807l230 133l66 -107l-251 -109z" />
<glyph unicode="&#xde;" horiz-adv-x="565" d="M68 0v674h158v-101h17q106 0 163 -19q124 -45 124 -205q0 -113 -68 -171t-192 -58h-44v-120h-158zM226 261h31q58 0 82.5 16t24.5 72q0 47 -26 65.5t-79 18.5h-33v-172z" />
<glyph unicode="&#xdf;" horiz-adv-x="601" d="M53 -163v833q115 40 240 40q105 0 173.5 -46.5t68.5 -138.5q0 -48 -23 -93t-63 -61v-4q56 -15 88 -59t32 -101q0 -109 -69 -166t-178 -57q-35 0 -75 5l7 134q28 -5 60 -5q48 0 74 23.5t26 63.5q0 86 -116 86h-29v122h23q88 0 88 90q0 76 -89 76q-47 0 -91 -14v-728h-147z " />
<glyph unicode="&#xe0;" horiz-adv-x="513" d="M28 133q0 90 69 137t197 47h16v17q0 29 -14.5 40t-53.5 11q-82 0 -164 -41l-19 114q97 43 201 43q154 0 186 -101q10 -30 10 -80v-225q0 -13 6.5 -18t23.5 -5v-78q-32 -10 -77 -10q-74 0 -89 58h-2q-45 -58 -137 -58q-66 0 -109.5 38.5t-43.5 110.5zM99 654l66 106 l230 -132l-45 -84zM180 150q0 -52 55 -52q41 0 75 31v90h-10q-120 0 -120 -69z" />
<glyph unicode="&#xe1;" horiz-adv-x="513" d="M28 133q0 90 69 137t197 47h16v17q0 29 -14.5 40t-53.5 11q-82 0 -164 -41l-19 114q97 43 201 43q154 0 186 -101q10 -30 10 -80v-225q0 -13 6.5 -18t23.5 -5v-78q-32 -10 -77 -10q-74 0 -89 58h-2q-45 -58 -137 -58q-66 0 -109.5 38.5t-43.5 110.5zM138 628l230 132 l66 -106l-251 -110zM180 150q0 -52 55 -52q41 0 75 31v90h-10q-120 0 -120 -69z" />
<glyph unicode="&#xe2;" horiz-adv-x="513" d="M28 133q0 90 69 137t197 47h16v17q0 29 -14.5 40t-53.5 11q-82 0 -164 -41l-19 114q97 43 201 43q154 0 186 -101q10 -30 10 -80v-225q0 -13 6.5 -18t23.5 -5v-78q-32 -10 -77 -10q-74 0 -89 58h-2q-45 -58 -137 -58q-66 0 -109.5 38.5t-43.5 110.5zM82 607l134 147h88 l134 -147l-61 -58l-115 103h-4l-115 -103zM180 150q0 -52 55 -52q41 0 75 31v90h-10q-120 0 -120 -69z" />
<glyph unicode="&#xe3;" horiz-adv-x="513" d="M28 133q0 90 69 137t197 47h16v17q0 29 -14.5 40t-53.5 11q-82 0 -164 -41l-19 114q97 43 201 43q154 0 186 -101q10 -30 10 -80v-225q0 -13 6.5 -18t23.5 -5v-78q-32 -10 -77 -10q-74 0 -89 58h-2q-45 -58 -137 -58q-66 0 -109.5 38.5t-43.5 110.5zM79 627q52 90 126 90 q33 0 71 -25t60 -25q39 0 60 47l62 -68q-20 -38 -52 -59t-69 -21t-75 22.5t-55 22.5q-38 0 -70 -50zM180 150q0 -52 55 -52q41 0 75 31v90h-10q-120 0 -120 -69z" />
<glyph unicode="&#xe4;" horiz-adv-x="513" d="M28 133q0 90 69 137t197 47h16v17q0 29 -14.5 40t-53.5 11q-82 0 -164 -41l-19 114q97 43 201 43q154 0 186 -101q10 -30 10 -80v-225q0 -13 6.5 -18t23.5 -5v-78q-32 -10 -77 -10q-74 0 -89 58h-2q-45 -58 -137 -58q-66 0 -109.5 38.5t-43.5 110.5zM99 643v8q0 36 17 54 t56 18q38 0 54 -18t16 -54v-8q0 -37 -16 -54.5t-54 -17.5q-39 0 -56 18t-17 54zM180 150q0 -52 55 -52q41 0 75 31v90h-10q-120 0 -120 -69zM297 643v8q0 36 16.5 54t54.5 18q39 0 55.5 -18t16.5 -54v-8q0 -37 -16.5 -54.5t-55.5 -17.5t-55 17.5t-16 54.5z" />
<glyph unicode="&#xe5;" horiz-adv-x="513" d="M28 133q0 90 69 137t197 47h16v17q0 29 -14.5 40t-53.5 11q-82 0 -164 -41l-19 114q97 43 201 43q154 0 186 -101q10 -30 10 -80v-225q0 -13 6.5 -18t23.5 -5v-78q-32 -10 -77 -10q-74 0 -89 58h-2q-45 -58 -137 -58q-66 0 -109.5 38.5t-43.5 110.5zM157 670 q0 52 33 84.5t82 32.5t82 -32.5t33 -84.5t-33 -84.5t-82 -32.5t-82 32.5t-33 84.5zM180 150q0 -52 55 -52q41 0 75 31v90h-10q-120 0 -120 -69zM239 670q0 -14 9 -24t24 -10t24 10t9 24q0 15 -9 24.5t-24 9.5t-24 -9.5t-9 -24.5z" />
<glyph unicode="&#xe6;" horiz-adv-x="799" d="M28 133q0 90 69 137t197 47h16v18q0 50 -69 50q-81 0 -163 -41l-19 114q104 43 195 43q108 0 147 -63q53 63 152 63q106 0 158 -62.5t52 -176.5q0 -42 -3 -80h-291q11 -77 112 -77q90 0 155 22l5 -115q-70 -28 -164 -28q-144 0 -210 73q-72 -73 -181 -73 q-69 0 -113.5 38.5t-44.5 110.5zM180 150q0 -52 55 -52q23 0 48 11.5t39 29.5q-10 34 -10 80h-12q-120 0 -120 -69zM468 285h149v11q0 93 -71 93q-78 0 -78 -97v-7z" />
<glyph unicode="&#xe7;" horiz-adv-x="459" d="M35 236v6q0 135 71.5 197t180.5 62q80 0 137 -26l-8 -126q-49 26 -108 26q-121 0 -121 -131q0 -71 30.5 -103.5t91.5 -32.5q53 0 112 20l5 -121q-54 -21 -131 -23l-9 -46q55 1 85 -23t30 -71q0 -56 -36 -86.5t-99 -30.5q-57 0 -111 27l21 67q44 -18 81 -18q53 0 53 34 t-52 34q-28 0 -59 -7l-11 11l27 115q-89 15 -134.5 78t-45.5 168z" />
<glyph unicode="&#xe8;" horiz-adv-x="516" d="M35 242v3q0 124 60.5 190t174.5 66q106 0 158 -62.5t52 -176.5q0 -42 -3 -80h-291q10 -77 112 -77q90 0 155 22l5 -115q-70 -28 -164 -28q-129 0 -194 60.5t-65 197.5zM99 654l66 106l230 -132l-45 -84zM185 285h149v11q0 93 -71 93q-78 0 -78 -97v-7z" />
<glyph unicode="&#xe9;" horiz-adv-x="516" d="M35 242v3q0 124 60.5 190t174.5 66q106 0 158 -62.5t52 -176.5q0 -42 -3 -80h-291q10 -77 112 -77q90 0 155 22l5 -115q-70 -28 -164 -28q-129 0 -194 60.5t-65 197.5zM149 628l230 132l66 -106l-251 -110zM185 285h149v11q0 93 -71 93q-78 0 -78 -97v-7z" />
<glyph unicode="&#xea;" horiz-adv-x="516" d="M35 242v3q0 124 60.5 190t174.5 66q106 0 158 -62.5t52 -176.5q0 -42 -3 -80h-291q10 -77 112 -77q90 0 155 22l5 -115q-70 -28 -164 -28q-129 0 -194 60.5t-65 197.5zM93 603l134 147h88l134 -147l-61 -58l-115 103h-4l-115 -103zM185 285h149v11q0 93 -71 93 q-78 0 -78 -97v-7z" />
<glyph unicode="&#xeb;" horiz-adv-x="516" d="M35 242v3q0 124 60.5 190t174.5 66q106 0 158 -62.5t52 -176.5q0 -42 -3 -80h-291q10 -77 112 -77q90 0 155 22l5 -115q-70 -28 -164 -28q-129 0 -194 60.5t-65 197.5zM102 643v8q0 36 17 54t56 18q38 0 54 -18t16 -54v-8q0 -37 -16 -54.5t-54 -17.5q-39 0 -56 18t-17 54 zM185 285h149v11q0 93 -71 93q-78 0 -78 -97v-7zM300 643v8q0 36 16.5 54t54.5 18q39 0 55.5 -18t16.5 -54v-8q0 -37 -16.5 -54.5t-55.5 -17.5t-55 17.5t-16 54.5z" />
<glyph unicode="&#xec;" horiz-adv-x="257" d="M-42 654l66 106l230 -132l-45 -84zM55 0v485h147v-485h-147z" />
<glyph unicode="&#xed;" horiz-adv-x="257" d="M3 628l230 132l66 -106l-251 -110zM55 0v485h147v-485h-147z" />
<glyph unicode="&#xee;" horiz-adv-x="257" d="M-50 603l134 147h88l134 -147l-61 -58l-115 103h-4l-115 -103zM55 0v485h147v-485h-147z" />
<glyph unicode="&#xef;" horiz-adv-x="257" d="M-42 643v8q0 36 17 54t56 18q38 0 54 -18t16 -54v-8q0 -37 -16 -54.5t-54 -17.5q-39 0 -56 18t-17 54zM55 0v485h147v-485h-147zM156 643v8q0 36 16.5 54t54.5 18q39 0 55.5 -18t16.5 -54v-8q0 -37 -16.5 -54.5t-55.5 -17.5t-55 17.5t-16 54.5z" />
<glyph unicode="&#xf0;" horiz-adv-x="563" d="M35 248q0 67 19.5 116.5t51.5 75t65 37.5t67 12q45 0 83 -12q-22 45 -76 85l-64 -46l-42 49l44 33q-48 18 -73 25l99 63q32 -10 62 -23l62 47l45 -50l-41 -31q91 -58 141 -150.5t50 -212.5q0 -137 -68 -209.5t-186 -72.5q-104 0 -171.5 66.5t-67.5 197.5zM200 251 q0 -69 22.5 -102t57.5 -33q83 0 83 137q0 53 -11 90q-33 10 -67 10q-85 0 -85 -102z" />
<glyph unicode="&#xf1;" horiz-adv-x="554" d="M53 0v485h131l5 -47h2q60 63 151 63q77 0 118 -43q44 -45 44 -146v-312h-147v289q0 42 -13 59q-16 21 -50 21q-54 0 -94 -43v-326h-147zM92 623q52 90 126 90q33 0 71 -25t60 -25q39 0 60 47l62 -68q-20 -38 -52 -59t-69 -21t-75 22.5t-55 22.5q-38 0 -70 -50z" />
<glyph unicode="&#xf2;" horiz-adv-x="557" d="M35 239v7q0 123 62 189t182 66t181.5 -66t61.5 -189v-7q0 -123 -61.5 -189t-181.5 -66t-182 66t-62 189zM119 654l66 106l230 -132l-45 -84zM187 242q0 -72 22.5 -105t69.5 -33q46 0 68.5 33t22.5 105q0 73 -22.5 106t-68.5 33q-47 0 -69.5 -33t-22.5 -106z" />
<glyph unicode="&#xf3;" horiz-adv-x="557" d="M35 239v7q0 123 62 189t182 66t181.5 -66t61.5 -189v-7q0 -123 -61.5 -189t-181.5 -66t-182 66t-62 189zM151 628l230 132l66 -106l-251 -110zM187 242q0 -72 22.5 -105t69.5 -33q46 0 68.5 33t22.5 105q0 73 -22.5 106t-68.5 33q-47 0 -69.5 -33t-22.5 -106z" />
<glyph unicode="&#xf4;" horiz-adv-x="557" d="M35 239v7q0 123 62 189t182 66t181.5 -66t61.5 -189v-7q0 -123 -61.5 -189t-181.5 -66t-182 66t-62 189zM101 603l134 147h88l134 -147l-61 -58l-115 103h-4l-115 -103zM187 242q0 -72 22.5 -105t69.5 -33q46 0 68.5 33t22.5 105q0 73 -22.5 106t-68.5 33 q-47 0 -69.5 -33t-22.5 -106z" />
<glyph unicode="&#xf5;" horiz-adv-x="557" d="M35 239v7q0 123 62 189t182 66t181.5 -66t61.5 -189v-7q0 -123 -61.5 -189t-181.5 -66t-182 66t-62 189zM92 623q52 90 126 90q33 0 71 -25t60 -25q39 0 60 47l62 -68q-20 -38 -52 -59t-69 -21t-75 22.5t-55 22.5q-38 0 -70 -50zM187 242q0 -72 22.5 -105t69.5 -33 q46 0 68.5 33t22.5 105q0 73 -22.5 106t-68.5 33q-47 0 -69.5 -33t-22.5 -106z" />
<glyph unicode="&#xf6;" horiz-adv-x="557" d="M35 239v7q0 123 62 189t182 66t181.5 -66t61.5 -189v-7q0 -123 -61.5 -189t-181.5 -66t-182 66t-62 189zM108 643v8q0 36 17 54t56 18q38 0 54 -18t16 -54v-8q0 -37 -16 -54.5t-54 -17.5q-39 0 -56 18t-17 54zM187 242q0 -72 22.5 -105t69.5 -33q46 0 68.5 33t22.5 105 q0 73 -22.5 106t-68.5 33q-47 0 -69.5 -33t-22.5 -106zM306 643v8q0 36 16.5 54t54.5 18q39 0 55.5 -18t16.5 -54v-8q0 -37 -16.5 -54.5t-55.5 -17.5t-55 17.5t-16 54.5z" />
<glyph unicode="&#xf7;" d="M77 191v126h419v-126h-419zM214 65v8q0 35 16 53.5t56 18.5t56 -18.5t16 -53.5v-8q0 -36 -16 -54t-56 -18t-56 18t-16 54zM214 436v7q0 36 16 54t56 18t56 -18t16 -54v-7q0 -36 -16 -54t-56 -18t-56 18t-16 54z" />
<glyph unicode="&#xf8;" horiz-adv-x="557" d="M35 239v7q0 123 62 189t182 66q71 0 124 -25l56 79l63 -39l-60 -83q60 -66 60 -187v-7q0 -123 -61.5 -189t-181.5 -66q-70 0 -122 23l-53 -73l-58 43l52 72q-63 66 -63 190zM187 242q0 -40 5 -61l134 188q-20 12 -47 12q-47 0 -69.5 -33t-22.5 -106zM234 114 q17 -10 45 -10q46 0 68.5 33t22.5 105q0 35 -4 56z" />
<glyph unicode="&#xf9;" horiz-adv-x="530" d="M48 241v244h146v-262q0 -59 5 -78q11 -41 66 -41t66 41q5 19 5 78v262h146v-244q0 -81 -3 -102q-10 -83 -61.5 -119t-152.5 -36t-152.5 36t-61.5 119q-3 21 -3 102zM110 654l66 106l230 -132l-45 -84z" />
<glyph unicode="&#xfa;" horiz-adv-x="530" d="M48 241v244h146v-262q0 -59 5 -78q11 -41 66 -41t66 41q5 19 5 78v262h146v-244q0 -81 -3 -102q-10 -83 -61.5 -119t-152.5 -36t-152.5 36t-61.5 119q-3 21 -3 102zM148 628l230 132l66 -106l-251 -110z" />
<glyph unicode="&#xfb;" horiz-adv-x="530" d="M48 241v244h146v-262q0 -59 5 -78q11 -41 66 -41t66 41q5 19 5 78v262h146v-244q0 -81 -3 -102q-10 -83 -61.5 -119t-152.5 -36t-152.5 36t-61.5 119q-3 21 -3 102zM91 603l134 147h88l134 -147l-61 -58l-115 103h-4l-115 -103z" />
<glyph unicode="&#xfc;" horiz-adv-x="530" d="M48 241v244h146v-262q0 -59 5 -78q11 -41 66 -41t66 41q5 19 5 78v262h146v-244q0 -81 -3 -102q-10 -83 -61.5 -119t-152.5 -36t-152.5 36t-61.5 119q-3 21 -3 102zM95 643v8q0 36 17 54t56 18q38 0 54 -18t16 -54v-8q0 -37 -16 -54.5t-54 -17.5q-39 0 -56 18t-17 54z M293 643v8q0 36 16.5 54t54.5 18q39 0 55.5 -18t16.5 -54v-8q0 -37 -16.5 -54.5t-55.5 -17.5t-55 17.5t-16 54.5z" />
<glyph unicode="&#xfd;" horiz-adv-x="506" d="M14 485h157q34 -188 87 -337h2q39 111 80 337h152q-57 -265 -158 -494q-50 -114 -100.5 -158t-124.5 -44q-42 0 -86 11l5 112q32 -8 56 -8q74 0 107 89q-106 193 -177 492zM147 628l230 132l66 -106l-251 -110z" />
<glyph unicode="&#xfe;" horiz-adv-x="558" d="M53 -199v893h147v-246q51 53 128 53q93 0 144 -66t51 -181v-6q0 -112 -53 -188t-157 -76q-32 0 -64 13.5t-49 30.5v-227h-147zM200 145q31 -31 79 -31q92 0 92 131q0 126 -82 126q-56 0 -89 -45v-181z" />
<glyph unicode="&#xff;" horiz-adv-x="506" d="M14 485h157q34 -188 87 -337h2q39 111 80 337h152q-57 -265 -158 -494q-50 -114 -100.5 -158t-124.5 -44q-42 0 -86 11l5 112q32 -8 56 -8q74 0 107 89q-106 193 -177 492zM84 643v8q0 36 17 54t56 18q38 0 54 -18t16 -54v-8q0 -37 -16 -54.5t-54 -17.5q-39 0 -56 18 t-17 54zM282 643v8q0 36 16.5 54t54.5 18q39 0 55.5 -18t16.5 -54v-8q0 -37 -16.5 -54.5t-55.5 -17.5t-55 17.5t-16 54.5z" />
<glyph unicode="&#x152;" horiz-adv-x="889" d="M44 336v3q0 155 62 252t182 97q89 0 136 -58v44h421l-13 -141h-260v-124h232l-14 -140h-218v-128h268l-14 -141h-398v49q-40 -63 -135 -63q-126 0 -187.5 91t-61.5 259zM210 337q0 -107 26.5 -156.5t88.5 -49.5q60 0 89 36v347q-32 29 -89 29q-62 0 -88.5 -50t-26.5 -156 z" />
<glyph unicode="&#x153;" horiz-adv-x="851" d="M35 239v7q0 123 62 189t182 66q100 0 164 -67q67 67 161 67q101 0 151 -60q33 -40 46.5 -94.5t13.5 -151.5v-13h-292q11 -77 110 -77q90 0 155 22l5 -115q-71 -28 -164 -28q-116 0 -187 64q-59 -64 -163 -64q-120 0 -182 66t-62 189zM187 242q0 -74 21.5 -107t70.5 -33 t70 33t21 107q0 75 -21 108t-70 33t-70.5 -33.5t-21.5 -107.5zM522 281h145v11q0 45 -13.5 71.5t-53.5 26.5q-78 0 -78 -102v-7z" />
<glyph unicode="&#x178;" horiz-adv-x="576" d="M17 674h160q58 -182 109 -290h4q51 108 109 290h160q-74 -233 -192 -449v-225h-158v225q-118 216 -192 449zM119 823v7q0 36 17 54t56 18q38 0 54 -17.5t16 -54.5v-7q0 -37 -15.5 -54.5t-54.5 -17.5q-40 0 -56.5 17.5t-16.5 54.5zM317 823v7q0 37 16 54.5t55 17.5 t55.5 -17.5t16.5 -54.5v-7q0 -37 -16.5 -54.5t-55.5 -17.5t-55 17.5t-16 54.5z" />
<glyph unicode="&#x2c6;" horiz-adv-x="398" d="M21 603l134 147h88l134 -147l-61 -58l-115 103h-4l-115 -103z" />
<glyph unicode="&#x2dc;" horiz-adv-x="398" d="M11 623q52 90 126 90q33 0 71 -25t60 -25q39 0 60 47l62 -68q-20 -38 -52 -59t-69 -21t-75 22.5t-55 22.5q-38 0 -70 -50z" />
<glyph unicode="&#x2013;" horiz-adv-x="500" d="M0 180v126h500v-126h-500z" />
<glyph unicode="&#x2014;" horiz-adv-x="1000" d="M0 180v126h1000v-126h-1000z" />
<glyph unicode="&#x2018;" horiz-adv-x="290" d="M60 501v5q0 41 25 112t68 146l75 -31q-46 -102 -58 -141q58 -21 58 -89v-8q0 -78 -85 -78q-83 0 -83 84z" />
<glyph unicode="&#x2019;" horiz-adv-x="290" d="M62 447q46 102 58 141q-58 21 -58 89v8q0 78 85 78q83 0 83 -84v-5q0 -41 -25 -112t-68 -146z" />
<glyph unicode="&#x201a;" horiz-adv-x="290" d="M62 63v8q0 78 85 78q83 0 83 -84v-5q0 -41 -25 -112t-68 -146l-75 31q46 102 58 141q-58 21 -58 89z" />
<glyph unicode="&#x201c;" horiz-adv-x="528" d="M60 501v5q0 41 25 112t68 146l75 -31q-46 -102 -58 -141q58 -21 58 -89v-8q0 -78 -85 -78q-83 0 -83 84zM298 501v5q0 41 25 112t68 146l75 -31q-46 -102 -58 -141q58 -21 58 -89v-8q0 -78 -85 -78q-83 0 -83 84z" />
<glyph unicode="&#x201d;" horiz-adv-x="528" d="M62 447q46 102 58 141q-58 21 -58 89v8q0 78 85 78q83 0 83 -84v-5q0 -41 -25 -112t-68 -146zM300 447q46 102 58 141q-58 21 -58 89v8q0 78 85 78q83 0 83 -84v-5q0 -41 -25 -112t-68 -146z" />
<glyph unicode="&#x201e;" horiz-adv-x="528" d="M62 63v8q0 78 85 78q83 0 83 -84v-5q0 -41 -25 -112t-68 -146l-75 31q46 102 58 141q-58 21 -58 89zM300 63v8q0 78 85 78q83 0 83 -84v-5q0 -41 -25 -112t-68 -146l-75 31q46 102 58 141q-58 21 -58 89z" />
<glyph unicode="&#x2022;" horiz-adv-x="386" d="M53 233v13q0 68 31.5 102.5t108.5 34.5t108.5 -34.5t31.5 -102.5v-13q0 -68 -31.5 -102.5t-108.5 -34.5t-108.5 34.5t-31.5 102.5z" />
<glyph unicode="&#x2026;" horiz-adv-x="786" d="M52 63v8q0 39 17.5 58.5t61.5 19.5t62 -19.5t18 -58.5v-8q0 -39 -18 -59t-62 -20t-61.5 20t-17.5 59zM314 63v8q0 39 17.5 58.5t61.5 19.5t62 -19.5t18 -58.5v-8q0 -39 -18 -59t-62 -20t-61.5 20t-17.5 59zM576 63v8q0 39 17.5 58.5t61.5 19.5t62 -19.5t18 -58.5v-8 q0 -39 -18 -59t-62 -20t-61.5 20t-17.5 59z" />
<glyph unicode="&#x2039;" horiz-adv-x="346" d="M29 243l177 251l106 -65l-131 -186l131 -185q-10 -6 -48 -29.5t-58 -36.5z" />
<glyph unicode="&#x203a;" horiz-adv-x="346" d="M29 58l131 185l-131 186l106 65l177 -251l-177 -251z" />
<glyph unicode="&#x20ac;" d="M24 209l9 104h74v12q0 19 1 30h-71l9 105h76q25 108 98 169t182 61q78 0 135 -25l-12 -149q-44 21 -107 21q-90 0 -124 -77h147l-9 -105h-158q-1 -7 -1 -20q0 -14 1 -22h154l-10 -104h-126q26 -76 122 -76q63 0 118 23l6 -145q-62 -27 -140 -27q-236 0 -280 225h-94z" />
<glyph unicode="&#x2122;" horiz-adv-x="742" d="M28 625v86h265l-5 -86h-76v-231h-106v231h-78zM328 394q5 164 16 317h117q11 -31 55 -168q7 24 23.5 80.5t26.5 87.5h118q13 -243 15 -317h-94q-1 82 -6 180q-30 -97 -50 -150h-69q-14 38 -51 150q-5 -86 -7 -180h-94z" />
<glyph unicode="&#xe000;" horiz-adv-x="485" d="M0 0v485h485v-485h-485z" />
</font>
</defs>
</svg>
